<svg xmlns="http://www.w3.org/2000/svg" viewBox="0 0 61 60.71"><g fill="#282d33"><path d="M58.36 0H2.62C1.17 0 0 1.17 0 2.62v39.44c0 1.52 1.45 3.02 2.93 3.02H22.9c0 .32 0 .67.01 1.03.02 1.14.03 2.43-.11 3.15-.12.58-.61 1.44-1.58 1.44h-1.63v2h2.01l.01.02c.01-.01.02-.01.04-.02h7.71v-2h-5.09s.24-.01.46-.87c.23-.91.19-2.08.19-4.74h4.44v-2H2.94c-.38 0-.93-.6-.93-1.01v-3.94h27.35v-2.05H2V2.62c0-.34.28-.62.62-.62h55.75c.34 0 .61.27.61.61v33.83l2 .67V2.62c0-1.45-1.17-2.62-2.62-2.62z"/><path d="M4.61 33.4h24.75v-2.01H6.62V6.69H54.3v16.95h2.01V4.69H4.61z"/><path d="M33.23 9.33v2h3.64L31.6 16.6l1.42 1.42 5.27-5.27v3.64h2V9.33h-7.06zM28.5 19.71l-5.27 5.27v-3.64h-2v7.06h7.06v-2h-3.64l5.27-5.27-1.42-1.42z"/></g><g fill="#6da3e0"><path d="M37.25 54.34V32.45h14.73v-2H35.25v25.9h8.84v-2.01z"/><path d="M59.23 34.44H56.3v-5.9c0-1.23-1-2.23-2.22-2.23H33.53c-1.23 0-2.23 1-2.23 2.23v29.95c0 1.23 1 2.22 2.23 2.22h25.7c.98 0 1.77-.79 1.77-1.77V36.21c0-.98-.8-1.77-1.77-1.77zM59 54.11H48.67V36.44H59v17.67zm-25.69 4.38V28.54c0-.12.1-.22.22-.22h20.55c.12 0 .22.1.22.22v5.9h-5.86c-.98 0-1.77.8-1.77 1.77V58.7H33.53a.207.207 0 01-.22-.21zm20.77.22h-5.41v-2.59H59v2.59h-4.92z"/></g></svg>