<svg xmlns="http://www.w3.org/2000/svg" viewBox="0 0 81 81"><path d="M20.08 31.23c-.44.97-.81 1.98-1.11 3l1.93.56c.27-.93.61-1.84 1.01-2.73l-1.83-.83zm20.35-13.15c-1.07 0-2.14.09-3.19.24l.29 1.98c.96-.14 1.93-.21 2.9-.21v-2.01zm-11.01 5.27l-1.1-1.68c-.9.57-1.74 1.22-2.55 1.92l1.32 1.51c.74-.63 1.51-1.22 2.33-1.75zm-6.12 6.16c.52-.81 1.11-1.6 1.74-2.33l-1.52-1.31c-.7.81-1.33 1.67-1.91 2.57l1.69 1.07zm-3.01 8.12l-1.98-.27c-.15 1.03-.22 2.09-.21 3.17h.4l1.61-.04c-.02-.95.04-1.91.18-2.86zm.63 8.66c-.27-.92-.49-1.88-.62-2.84l-1.98.29c.15 1.06.39 2.11.69 3.13l1.91-.58zm13.77-25.37L34.12 19c-1.02.3-2.03.69-2.99 1.12l.83 1.82c.89-.39 1.8-.74 2.73-1.02zm27.99 16.3c-.15-1.05-.39-2.11-.69-3.13l-1.92.57c.27.92.49 1.88.62 2.84l1.99-.28zm-22.16 25.7c1.07 0 2.14-.07 3.19-.22l-.29-1.98c-.96.14-1.93.21-2.9.21v1.99zM60.9 49.81c.44-.97.82-1.98 1.12-3l-1.93-.56c-.27.93-.61 1.84-1.02 2.73l1.83.83zm2.02-9.31v-.09l-2.01.09c0 .97-.07 1.94-.2 2.9l1.98.29c.15-1.06.23-2.13.23-3.19zm-2.06-9.4c-.45-.96-.96-1.91-1.55-2.8l-1.68 1.1c.52.81 1 1.67 1.41 2.54l1.82-.84zM46.74 18.97c-1.02-.3-2.08-.52-3.13-.66l-.27 1.98c.96.14 1.92.34 2.85.61l.55-1.93zM34.21 62.02c1.02.3 2.07.52 3.13.67l.27-1.98c-.96-.14-1.92-.34-2.84-.61l-.56 1.92zm-5.81-2.64c.9.57 1.84 1.1 2.8 1.53l.83-1.83c-.87-.4-1.73-.87-2.55-1.4l-1.08 1.7zm23.14-1.71l1.08 1.68c.9-.57 1.76-1.22 2.55-1.92l-1.32-1.52c-.7.64-1.49 1.24-2.31 1.76zm-5.27 2.42l.56 1.92c1.02-.3 2.02-.67 2.99-1.12l-.83-1.82c-.88.4-1.8.75-2.72 1.02zm11.41-8.56c-.52.81-1.11 1.6-1.74 2.33l1.52 1.31c.7-.81 1.35-1.67 1.92-2.55l-1.7-1.09zM55.12 23.5l-1.31 1.52c.74.64 1.43 1.32 2.07 2.06l1.51-1.32c-.7-.8-1.46-1.56-2.27-2.26zm-5.37-3.42l-.83 1.83c.88.4 1.74.87 2.55 1.38l1.08-1.69c-.88-.58-1.83-1.09-2.8-1.52zM25.09 53.9l-1.52 1.32c.7.81 1.46 1.57 2.27 2.26l1.31-1.52c-.73-.64-1.42-1.34-2.06-2.06zm-4.98-4.04c.45.96.96 1.91 1.53 2.8l1.68-1.08c-.52-.81-1-1.67-1.4-2.54l-1.81.82zM39.99 3.84v9.24H42V3.84l4.46 4.46 1.42-1.42L40.99 0l-6.88 6.88 1.42 1.42zm-25.77 11.1l6.53 6.53 1.42-1.42-6.53-6.53h6.29v-2.01h-9.72l-.01 9.74h2.02zm-1.14 26.07V39H3.84l4.46-4.46-1.42-1.42L0 40l6.88 6.89 1.42-1.42-4.46-4.46zm6.97 17.82l-6.53 6.53v-6.29h-2.01v9.72h9.74v-2.01h-6.31l6.53-6.53zm46.73 7.23l-6.53-6.53-1.42 1.42 6.53 6.53h-6.3v2.01h9.73v-9.74h-2.01zm7.34-31.95l-1.42 1.42 4.46 4.46h-9.24V42h9.24l-4.46 4.46 1.42 1.42L81 40.99zM41.01 77.16v-9.24H39v9.24l-4.46-4.46-1.42 1.42L40 81l6.89-6.88-1.42-1.42zm19.94-54.99l6.53-6.53v6.3l2.01-.01v-9.72h-9.74v2.01h6.31l-6.53 6.53z" fill="#282d33"/><path d="M40.5 24.51c-8.82 0-16 7.18-16 15.99 0 8.82 7.18 15.99 16 15.99s15.99-7.18 15.99-15.99c0-8.82-7.17-15.99-15.99-15.99zM32.29 51.8v-1.1c0-2.36 1.91-4.26 4.26-4.26h7.9c2.36 0 4.26 1.91 4.26 4.26v1.1a13.935 13.935 0 01-8.21 2.69c-3.07-.01-5.91-1.01-8.21-2.69zm18.37-1.72c-.31-3.17-2.97-5.66-6.21-5.66H43.1c2.16-1 3.66-3.17 3.66-5.68 0-3.45-2.82-6.27-6.27-6.27s-6.27 2.82-6.27 6.27c0 2.53 1.51 4.7 3.66 5.68h-1.35c-3.25 0-5.89 2.49-6.21 5.66-2.37-2.5-3.83-5.88-3.83-9.58 0-7.71 6.28-13.98 13.98-13.98 7.71 0 13.98 6.28 13.98 13.98.03 3.71-1.43 7.08-3.79 9.58zM40.5 43c-2.36 0-4.26-1.91-4.26-4.26 0-2.36 1.91-4.26 4.26-4.26s4.26 1.91 4.26 4.26c0 2.36-1.92 4.26-4.26 4.26z" fill="#6ec8a9"/></svg>