<svg xmlns="http://www.w3.org/2000/svg" viewBox="0 0 63 63"><path d="M42.96 25.36c0-.03-.01-.06-.01-.09-.01-.06-.01-.12-.02-.17 0-.02-.01-.03-.02-.04-.02-.07-.05-.13-.08-.2 0-.01-.01-.01-.01-.02a.896.896 0 00-.15-.19c-.01-.01-.02-.01-.03-.02a.862.862 0 00-.18-.14L31.97 18.5a.993.993 0 00-1 0l-10.55 6.09c-.01 0-.01.01-.02.01-.2.12-.34.31-.42.52-.01.02-.02.05-.03.07-.01.04-.01.07-.01.11-.01.05-.02.1-.02.15v12.18c0 .36.19.69.5.87l10.48 6c.04.02.09.04.14.06.04.01.07.03.1.04a.99.99 0 00.67-.07c.03-.01.06-.02.09-.04l10.55-6.09c.31-.18.5-.51.5-.87l.01-12.17zm-11.49-4.84l8.47 4.84-8.54 4.94-6.06-3.47-2.41-1.38 8.54-4.93zm-9.55 6.66l8.48 4.85v9.88l-8.49-4.85.01-9.88zM32.4 41.9v-9.87l8.55-4.94v9.87L32.4 41.9z" fill="#6da3e0"/><path d="M15.15 26.13l-1.9-.62c-.33 1-.57 2.03-.73 3.07l1.98.3c.13-.93.35-1.86.65-2.75zm1.29 13.71c-.46-.82-.85-1.69-1.16-2.58l-1.88.67c.35.99.79 1.96 1.3 2.88l1.74-.97zm-3.85-4.96l1.97-.35c-.16-.92-.25-1.87-.26-2.82l-2 .02c.01 1.06.11 2.11.29 3.15zm3.58-14.96c-.64.84-1.21 1.74-1.69 2.67l1.77.93c.44-.83.95-1.64 1.52-2.39l-1.6-1.21zm5.69-2.68l-1.12-1.66c-.87.59-1.7 1.26-2.46 1.98l1.38 1.45c.68-.64 1.42-1.24 2.2-1.77zm5.05 32.92c1.02.25 2.07.42 3.12.5l.15-1.99c-.94-.07-1.88-.22-2.8-.44l-.47 1.93zm5.7-35.83l.13-2c-1.04-.07-2.11-.05-3.16.06l.2 1.99c.94-.1 1.9-.11 2.83-.05zm15.58 7.66c-.52-.91-1.12-1.79-1.79-2.61l-1.55 1.26c.6.73 1.14 1.52 1.6 2.33l1.74-.98zm-21.2-7.1l-.52-1.93c-1.02.28-2.02.64-2.97 1.08l.84 1.82c.85-.4 1.74-.72 2.65-.97zm-8.97 27.3l-1.57 1.24c.65.82 1.38 1.6 2.16 2.3l1.34-1.48c-.69-.62-1.34-1.32-1.93-2.06zm20.46 5.04l.81 1.83c.96-.43 1.89-.94 2.77-1.52l-1.1-1.67c-.78.52-1.62.98-2.48 1.36zm3.2-32.02l-1.06 1.7c.8.5 1.56 1.07 2.27 1.69l1.32-1.5c-.79-.69-1.64-1.33-2.53-1.89zm3.42 26.82c-.58.75-1.22 1.45-1.91 2.09l1.36 1.47c.77-.71 1.49-1.5 2.13-2.33l-1.58-1.23zm3.31-1.42c.5-.92.92-1.9 1.27-2.9l-1.89-.65c-.31.89-.69 1.77-1.13 2.59l1.75.96zM35.86 12.79l-.45 1.95c.92.21 1.83.5 2.7.87l.77-1.85c-.98-.41-1.99-.73-3.02-.97zM50.37 27.9c-.2-1.03-.48-2.06-.84-3.05l-1.88.69c.33.88.58 1.8.76 2.73l1.96-.37zM21.12 47.67c.89.57 1.83 1.07 2.79 1.49l.79-1.84c-.86-.37-1.71-.82-2.5-1.33l-1.08 1.68zm14.69.49c-.91.24-1.85.4-2.79.48l.17 1.99c1.05-.09 2.1-.27 3.11-.53l-.49-1.94zm14.9-16.66v-.46l-2 .04v.42c0 .95-.08 1.9-.23 2.82l1.97.33c.17-1.03.26-2.09.26-3.15zM30.88 3.83v6.56h2V3.83l3.04 3.04 1.42-1.42L31.88 0l-5.46 5.45 1.41 1.42zm-19.39 8.54l4.64 4.64 1.42-1.41-4.64-4.64 4.3-.01v-2l-7.72.01v7.71h2zm-1.1 19.75v-2H3.83l3.04-3.04-1.42-1.42L0 31.12l5.45 5.46 1.42-1.42-3.04-3.04zm5.21 13.33l-4.64 4.64-.01-4.3h-2l.01 7.72h7.71v-2h-4.3l4.64-4.65zm35.91 5.18l-4.65-4.64-1.41 1.41 4.64 4.64h-4.3v2h7.71l.01-7.71h-2zm6.03-24.21l-1.41 1.41 3.04 3.05h-6.56v2h6.56l-3.04 3.04 1.41 1.42L63 31.88zM32.12 59.17v-6.56h-2v6.56l-3.04-3.04-1.42 1.42L31.12 63l5.46-5.45-1.42-1.42zM47.4 17.55l4.64-4.64v4.3h2V9.49h-7.72v2h4.31l-4.64 4.64z" fill="#282d33"/></svg>