<svg xmlns="http://www.w3.org/2000/svg" viewBox="0 0 60.76 61"><path d="M39.79 41.93c-4.58 0-8.9-1.44-12.54-4.17l-5.82 1.56 1.56-5.81c-2.73-3.64-4.17-7.97-4.17-12.54C18.82 9.41 28.23 0 39.79 0s20.97 9.41 20.97 20.97-9.41 20.96-20.97 20.96zm-11.98-6.91l.49.39c3.3 2.63 7.27 4.01 11.49 4.01 10.18 0 18.46-8.28 18.46-18.46S49.97 2.5 39.79 2.5s-18.46 8.28-18.46 18.46c0 4.22 1.39 8.19 4.02 11.49l.39.49-.76 2.83 2.83-.75z" fill="#282d33"/><path d="M35.84 61c-7.97 0-16.83-4.48-24.3-12.3C3.62 40.84-.57 31.69.06 23.62l.03-.39.25-.3c.62-.76 1.17-1.38 1.73-1.93 1.26-1.26 2.66-2.37 4.17-3.33l1.03-.65.68 1.02c2.21 3.31 4.69 6.63 7.36 9.87l.65.79-.64.8c-.09.11-.22.26-.42.39l-3.18 2.12c-.17.11-.24.33-.26.45-.08.42.05.91.34 1.33.88 1.25 4.45 5.25 7.25 8.22 2.89 2.72 6.95 6.35 8.18 7.22.33.24.72.36 1.08.36.32 0 .59-.1.7-.27l.77-1.16c.45-.68.9-1.36 1.36-2.04.13-.2.29-.33.39-.42l.79-.64.78.65c3.23 2.67 6.55 5.15 9.87 7.36l1.02.68-.65 1.03a24.29 24.29 0 01-3.33 4.17c-.55.55-1.18 1.12-1.93 1.73l-.3.25-.39.03c-.51.02-1.03.04-1.55.04zM2.53 24.2c-.2 3.73.63 12.65 10.8 22.75C20.35 54.3 28.55 58.5 35.84 58.5c.32 0 .64-.01.96-.03.55-.46 1.02-.89 1.44-1.31.84-.84 1.61-1.76 2.31-2.73a122.54 122.54 0 01-7.99-5.96c-.23.35-.46.7-.69 1.04l-.77 1.15c-.57.87-1.61 1.4-2.79 1.4-.88 0-1.77-.29-2.52-.82-1.53-1.08-5.97-5.09-8.49-7.47l-.05-.05c-2.39-2.53-6.43-6.99-7.5-8.52-.69-.97-.96-2.16-.75-3.24.17-.88.65-1.62 1.34-2.07l2.18-1.45a122.54 122.54 0 01-5.96-7.99c-.97.69-1.89 1.46-2.73 2.3-.41.43-.83.89-1.3 1.45z" fill="#282d33"/><path d="M38.52 19.55l-3.19-2.98h11.14v-2.5H35.32l3.2-2.98-1.7-1.83-6.51 6.06 6.51 6.06zm3.28-.28l-1.71 1.83 3.2 2.98H32.15v2.51h11.14l-3.2 2.98 1.71 1.83 6.51-6.06z" fill="#6da3e0"/></svg>