<svg xmlns="http://www.w3.org/2000/svg" viewBox="0 0 46.29 65"><path d="M26.03 59.95h-6.37l-.38-4.62c-1.23-.35-2.39-.86-3.48-1.53l-3.41 2.89-4.5-4.5 2.99-3.54c-.62-1.11-1.08-2.3-1.37-3.54l-4.46-.37v-6.37l4.62-.39c.35-1.23.86-2.39 1.53-3.47L8.31 31.1l4.5-4.5 3.54 2.99c1.11-.62 2.3-1.08 3.54-1.37l.37-4.46h6.37l.38 4.62c1.23.35 2.39.86 3.47 1.53l3.41-2.89 4.5 4.5-2.99 3.54c.62 1.11 1.08 2.3 1.37 3.54l4.46.37v6.37l-4.62.38c-.35 1.23-.86 2.39-1.53 3.47l2.89 3.41-4.5 4.5-3.54-2.99c-1.11.62-2.3 1.08-3.54 1.37l-.36 4.47zm-4.85-1.65h3.33l.35-4.18.62-.12c1.47-.28 2.86-.82 4.12-1.59l.51-.31 3.28 2.77 2.35-2.35-2.71-3.2.35-.52c.84-1.23 1.44-2.59 1.79-4.04l.14-.58 4.28-.36V40.5l-4.18-.35-.12-.62c-.28-1.47-.81-2.86-1.59-4.13l-.31-.51 2.77-3.28-2.35-2.35-3.2 2.71-.52-.35c-1.23-.84-2.59-1.44-4.04-1.79l-.58-.14-.36-4.28h-3.33l-.35 4.18-.62.12c-1.47.28-2.86.82-4.13 1.59l-.51.31-3.28-2.77-2.35 2.35 2.71 3.2-.35.52c-.84 1.23-1.44 2.59-1.79 4.04l-.14.58-4.27.36v3.33l4.18.35.12.61c.28 1.47.81 2.86 1.59 4.12l.31.51-2.77 3.28 2.35 2.35 3.2-2.71.52.35c1.23.84 2.59 1.44 4.05 1.79l.58.14.35 4.29z" fill="#6da3e0"/><path d="M23.14 49.84c-4.4 0-7.98-3.58-7.98-7.98s3.58-7.98 7.98-7.98 7.98 3.58 7.98 7.98c.01 4.4-3.57 7.98-7.98 7.98zm0-14.31c-3.49 0-6.33 2.84-6.33 6.33s2.84 6.33 6.33 6.33 6.33-2.84 6.33-6.33-2.83-6.33-6.33-6.33z" fill="#6da3e0"/><path d="M28.95 19.45V9.51h1.45V0H15.88v9.51h1.45v9.95C7.09 22.09 0 31.21 0 41.86 0 54.62 10.38 65 23.14 65s23.15-10.38 23.15-23.14c0-10.65-7.1-19.77-17.34-22.41zm-5.81 43.9c-11.85 0-21.49-9.64-21.49-21.49 0-10.09 6.86-18.7 16.69-20.95l.64-.15V9.22h3.82V7.57h-5.28V1.65h11.22v6.2H27.3v12.91l.64.15c9.83 2.24 16.69 10.86 16.69 20.95.01 11.85-9.64 21.49-21.49 21.49z" fill="#282d33"/></svg>