<?xml version="1.0" encoding="utf-8"?>
<!-- Generator: Adobe Illustrator 23.0.3, SVG Export Plug-In . SVG Version: 6.00 Build 0)  -->
<svg version="1.1" id="Layer_1" xmlns="http://www.w3.org/2000/svg" xmlns:xlink="http://www.w3.org/1999/xlink" x="0px" y="0px"
	 viewBox="0 0 72 72" style="enable-background:new 0 0 72 72;" xml:space="preserve">
<g>
	<path style="fill:#E0E1E2;" d="M42.14,71.6c0.6,0,1.21-0.02,1.8-0.07l0.34-0.03l0.26-0.22c0.87-0.72,1.61-1.38,2.26-2.03
		c1.47-1.48,2.78-3.12,3.89-4.87l0.56-0.89l-0.88-0.59c-3.96-2.65-7.92-5.59-11.74-8.76l-0.68-0.56l-0.69,0.55
		c-0.11,0.08-0.26,0.21-0.38,0.4l-2.52,3.8c-0.4,0.62-1.75,0.66-2.68,0c-1.48-1.04-6.33-5.37-9.76-8.6
		c-3.34-3.54-7.61-8.32-8.65-9.82c-0.41-0.58-0.59-1.29-0.47-1.89c0.07-0.36,0.24-0.63,0.48-0.79l3.77-2.51
		c0.15-0.1,0.28-0.22,0.41-0.38l0.56-0.69l-0.56-0.68c-3.18-3.85-6.13-7.8-8.76-11.75L8.1,20.34l-0.89,0.56
		c-1.76,1.11-3.4,2.42-4.88,3.89c-0.65,0.65-1.29,1.37-2.02,2.26L0.1,27.32l-0.03,0.34c-0.74,9.46,4.19,20.19,13.51,29.45
		C22.38,66.32,32.78,71.59,42.14,71.6l0,0.4L42.14,71.6z M15.13,55.6C2.81,43.36,1.98,32.43,2.2,28.3l0.01-0.13l0.09-0.1
		c0.55-0.66,1.06-1.22,1.57-1.73c1.02-1.01,2.12-1.95,3.29-2.78l0.34-0.24l0.23,0.34c2.17,3.18,4.54,6.36,7.05,9.46l0.28,0.35
		l-2.96,1.97c-0.74,0.48-1.24,1.26-1.42,2.2c-0.23,1.18,0.07,2.47,0.82,3.54c1.27,1.81,6.04,7.08,8.86,10.07
		c3.01,2.85,8.26,7.59,10.07,8.87c0.82,0.58,1.81,0.9,2.76,0.9c1.26,0,2.37-0.55,2.97-1.48l1.98-2.98l0.34,0.28
		c3.12,2.52,6.3,4.89,9.46,7.05l0.34,0.23l-0.24,0.34c-0.83,1.17-1.77,2.28-2.78,3.29c-0.5,0.5-1.07,1.02-1.73,1.58l-0.1,0.09
		L43.3,69.4c-0.38,0.02-0.77,0.03-1.16,0.03C33.37,69.43,23.53,64.39,15.13,55.6z"/>
	<path style="fill:#E0E1E2;" d="M32.88,44.1c4.25,3.18,9.31,4.87,14.64,4.87C61.02,48.97,72,37.98,72,24.48S61.02,0,47.52,0
		S23.03,10.98,23.03,24.48c0,5.33,1.68,10.39,4.87,14.65l0.12,0.16L26.3,45.7l6.42-1.72L32.88,44.1z M30.05,38.37
		c-3.18-3.99-4.85-8.79-4.85-13.89c0-12.31,10.01-22.32,22.32-22.32c12.31,0,22.32,10.01,22.32,22.32
		c0,12.31-10.01,22.32-22.32,22.32c-5.1,0-9.9-1.68-13.89-4.85l-0.43-0.34l-3.84,1.03l1.03-3.84L30.05,38.37z"/>
	<g>
		<polygon style="fill:#7EBAEE;" points="46.01,23.58 41.76,19.62 55.61,19.62 55.61,17.46 41.76,17.46 46.01,13.5 44.54,11.91 
			37.43,18.54 44.54,25.16 		"/>
		<polygon style="fill:#7EBAEE;" points="50.5,23.8 49.02,25.38 53.27,29.34 39.42,29.34 39.42,31.51 53.27,31.51 49.02,35.47 
			50.5,37.05 57.6,30.43 		"/>
	</g>
</g>
</svg>
