<?xml version="1.0" encoding="utf-8"?>
<!-- Generator: Adobe Illustrator 23.0.3, SVG Export Plug-In . SVG Version: 6.00 Build 0)  -->
<svg version="1.1" id="Layer_1" xmlns="http://www.w3.org/2000/svg" xmlns:xlink="http://www.w3.org/1999/xlink" x="0px" y="0px"
	 viewBox="0 0 68 72" style="enable-background:new 0 0 68 72;" xml:space="preserve">
<g>
	<g>
		<path style="fill:#E0E1E2;" d="M2.14,9.13h41.55v2.48h2.14v-8.8c0-1.55-1.26-2.82-2.82-2.82H2.82C1.26,0,0,1.26,0,2.82v66.36
			C0,70.97,1.04,72,2.85,72H32.1l0.01-2.15H2.89c-0.41,0-0.75-0.34-0.75-0.75v-9.08h30l0.01-2.14H2.14V9.13z M2.14,2.89
			c0-0.41,0.33-0.75,0.75-0.75h40.05c0.41,0,0.75,0.33,0.75,0.75v4.09H2.14V2.89z"/>
		<rect x="17.48" y="63.87" style="fill:#E0E1E2;" width="10.87" height="2.15"/>
		<path style="fill:#E0E1E2;" d="M49.48,65.69c0,1.03,0.7,1.73,1.73,1.73c1.03,0,1.73-0.7,1.73-1.73c0-1.03-0.7-1.73-1.73-1.73
			C50.17,63.96,49.48,64.65,49.48,65.69z"/>
		<path style="fill:#E0E1E2;" d="M65.18,13.97H51.21H37.24c-1.82,0-2.82,1-2.82,2.82c0,13.1,0,39.29,0,52.39
			c0,1.79,1.04,2.82,2.85,2.82h13.94h13.94c1.81,0,2.85-1.03,2.85-2.82c0-13.1,0-39.29,0-52.39C68,14.97,67,13.97,65.18,13.97z
			 M65.85,69.11c0,0.41-0.33,0.75-0.75,0.75h-13.9h-13.9c-0.41,0-0.75-0.34-0.75-0.75v-7.59h14.64h14.64V69.11z M65.85,59.38H51.21
			H36.56V23.1h14.64h14.64V59.38z M65.85,20.96H51.21H36.56v-4.09c0-0.41,0.33-0.75,0.75-0.75h13.9h13.9c0.41,0,0.75,0.33,0.75,0.75
			V20.96z"/>
	</g>
	<g>
		
			<rect x="42.04" y="30.72" transform="matrix(0.7071 -0.7071 0.7071 0.7071 -9.2255 41.3125)" style="fill:#7EBAEE;" width="6.43" height="2.15"/>
		
			<rect x="40.31" y="34.89" transform="matrix(0.7071 -0.7071 0.7071 0.7071 -10.9525 45.482)" style="fill:#7EBAEE;" width="18.23" height="2.15"/>
	</g>
	
		<rect x="7.6" y="18.85" transform="matrix(0.7071 -0.7071 0.7071 0.7071 -10.3012 14.9866)" style="fill:#7EBAEE;" width="10.68" height="2.15"/>
	
		<rect x="5.87" y="23.02" transform="matrix(0.7071 -0.7071 0.7071 0.7071 -12.0283 19.156)" style="fill:#7EBAEE;" width="22.48" height="2.15"/>
</g>
</svg>
