<?xml version="1.0" encoding="utf-8"?>
<!-- Generator: Adobe Illustrator 23.0.3, SVG Export Plug-In . SVG Version: 6.00 Build 0)  -->
<svg version="1.1" id="Layer_1" xmlns="http://www.w3.org/2000/svg" xmlns:xlink="http://www.w3.org/1999/xlink" x="0px" y="0px"
	 viewBox="0 0 74 72" style="enable-background:new 0 0 74 72;" xml:space="preserve">
<g>
	<path style="fill:#7EBAEE;" d="M37,72c-3.94,0-7.79-0.7-11.44-2.09l0.76-2c6.82,2.59,14.55,2.59,21.37,0l0.76,2
		C44.79,71.3,40.94,72,37,72z"/>
	<path style="fill:#7EBAEE;" d="M66.82,35.82c-1.03-7.81-5.02-14.81-11.24-19.7l1.32-1.68c6.67,5.24,10.94,12.74,12.04,21.1
		L66.82,35.82z"/>
	<path style="fill:#7EBAEE;" d="M7.18,35.82l-2.12-0.28c1.1-8.37,5.38-15.86,12.04-21.1l1.32,1.68C12.2,21.02,8.2,28.01,7.18,35.82z
		"/>
	<path style="fill:#E0E1E2;" d="M51.79,8.67c-0.01-0.05-0.04-0.09-0.05-0.13c-0.02-0.04-0.03-0.09-0.05-0.13
		c-0.03-0.05-0.06-0.08-0.1-0.12c-0.02-0.03-0.04-0.07-0.07-0.09c-0.03-0.03-0.08-0.06-0.12-0.09c-0.03-0.03-0.06-0.06-0.1-0.08
		c0,0,0,0,0,0c0,0,0,0,0,0L37.53,0.14c-0.33-0.19-0.73-0.19-1.06,0L22.71,8.02c0,0,0,0,0,0c0,0,0,0,0,0
		c-0.04,0.02-0.07,0.05-0.1,0.08c-0.04,0.03-0.08,0.06-0.12,0.09c-0.03,0.03-0.05,0.06-0.07,0.09c-0.03,0.04-0.07,0.08-0.1,0.12
		c-0.02,0.04-0.04,0.08-0.05,0.13c-0.02,0.04-0.04,0.08-0.05,0.13c-0.02,0.09-0.04,0.18-0.04,0.28v15.93c0,0.38,0.2,0.73,0.53,0.92
		l13.76,8.03c0,0,0,0,0,0c0,0,0,0,0,0c0.05,0.03,0.1,0.04,0.15,0.06c0.04,0.01,0.07,0.03,0.1,0.04c0.09,0.02,0.18,0.04,0.27,0.04
		c0.09,0,0.18-0.01,0.27-0.04c0.03-0.01,0.06-0.03,0.1-0.04c0.05-0.02,0.11-0.04,0.16-0.07c0,0,0,0,0,0c0,0,0,0,0,0L51.3,25.8
		c0.33-0.19,0.53-0.54,0.53-0.92V8.95C51.83,8.85,51.82,8.76,51.79,8.67z M37,2.3l11.61,6.64L41.52,13L37,15.59l-4.37-2.5
		l-7.24-4.14L37,2.3z M24.31,10.79l11.62,6.65v13.6l-11.62-6.78V10.79z M49.69,24.26l-11.62,6.78v-13.6l11.62-6.65V24.26z"/>
	<path style="fill:#E0E1E2;" d="M73.96,44.26c-0.01-0.05-0.04-0.09-0.05-0.13c-0.02-0.04-0.03-0.09-0.05-0.13
		c-0.03-0.05-0.06-0.08-0.1-0.12c-0.02-0.03-0.04-0.07-0.07-0.09c-0.03-0.03-0.08-0.06-0.12-0.09c-0.03-0.03-0.06-0.06-0.1-0.08
		c0,0,0,0,0,0c0,0,0,0,0,0L59.7,35.74c-0.33-0.19-0.73-0.19-1.06,0l-13.76,7.88c0,0,0,0,0,0c0,0,0,0,0,0
		c-0.04,0.02-0.07,0.05-0.1,0.08c-0.04,0.03-0.08,0.06-0.12,0.09c-0.03,0.03-0.05,0.06-0.07,0.09c-0.03,0.04-0.07,0.08-0.1,0.12
		c-0.02,0.04-0.04,0.08-0.05,0.13c-0.02,0.04-0.04,0.08-0.05,0.13c-0.02,0.09-0.04,0.18-0.04,0.28v15.93c0,0.38,0.2,0.73,0.53,0.92
		l13.76,8.03c0,0,0,0,0,0c0,0,0,0,0,0c0.05,0.03,0.11,0.05,0.16,0.07c0.03,0.01,0.06,0.03,0.1,0.04c0.09,0.02,0.18,0.04,0.27,0.04
		c0.09,0,0.18-0.01,0.27-0.04c0.03-0.01,0.06-0.03,0.1-0.04c0.05-0.02,0.11-0.04,0.16-0.07c0,0,0,0,0,0c0,0,0,0,0,0l13.76-8.03
		C73.8,61.21,74,60.85,74,60.47V44.54C74,44.45,73.99,44.35,73.96,44.26z M59.17,37.9l11.61,6.65l-7.09,4.06l-4.52,2.59l-4.52-2.59
		l-7.09-4.06L59.17,37.9z M46.48,46.39l11.62,6.65v13.6l-11.62-6.78V46.39z M71.86,59.86l-11.62,6.78v-13.6l11.62-6.65V59.86z"/>
	<path style="fill:#E0E1E2;" d="M0,44.54l0,15.93c0,0.38,0.2,0.73,0.53,0.92l13.76,8.03c0,0,0,0,0,0c0,0,0,0,0,0
		c0.05,0.03,0.11,0.05,0.16,0.07c0.03,0.01,0.06,0.03,0.1,0.04c0.09,0.02,0.18,0.04,0.27,0.04c0.09,0,0.18-0.01,0.27-0.04
		c0.03-0.01,0.06-0.03,0.1-0.04c0.05-0.02,0.11-0.04,0.16-0.07c0,0,0,0,0,0c0,0,0,0,0,0l13.76-8.03c0.33-0.19,0.53-0.54,0.53-0.92
		V44.54c0-0.1-0.01-0.19-0.04-0.28c-0.01-0.05-0.04-0.09-0.05-0.13c-0.02-0.04-0.03-0.09-0.05-0.13c-0.03-0.05-0.06-0.08-0.1-0.12
		c-0.02-0.03-0.04-0.07-0.07-0.09c-0.03-0.03-0.08-0.06-0.12-0.09c-0.03-0.03-0.06-0.06-0.1-0.08c0,0,0,0,0,0c0,0,0,0,0,0
		l-13.76-7.88c-0.33-0.19-0.73-0.19-1.06,0L0.54,43.62c0,0,0,0,0,0c0,0,0,0,0,0c-0.04,0.02-0.07,0.05-0.1,0.08
		c-0.04,0.03-0.08,0.06-0.12,0.09c-0.03,0.03-0.05,0.06-0.07,0.09c-0.03,0.04-0.07,0.08-0.1,0.12c-0.02,0.04-0.04,0.08-0.05,0.13
		c-0.02,0.04-0.04,0.08-0.05,0.13C0.01,44.35,0,44.45,0,44.54z M26.43,44.54l-7.09,4.06l-4.52,2.59l-4.52-2.59l-7.09-4.06
		l11.61-6.65L26.43,44.54z M27.52,59.86L15.9,66.64v-13.6l11.62-6.65V59.86z M2.14,46.39l11.62,6.65v13.6L2.14,59.86V46.39z"/>
</g>
</svg>
