<svg width="69" height="69" viewBox="0 0 69 69" fill="none" xmlns="http://www.w3.org/2000/svg"><path d="M2.719 63.05l32.1-32.1M5.82 59.85l5.5 5.6m2.2-13.2l5.5 5.5m-9.403-1.7l3.4 3.4m23.302-29.5a6.64 6.64 0 01-9.4 0 6.64 6.64 0 010-9.4c2.6-2.6 6.8-2.6 9.4 0 2.6 2.6 2.6 6.8 0 9.4z" stroke="#36B68A" stroke-width="2"/><path d="M41.217 41.45a6.6 6.6 0 100-13.2 6.6 6.6 0 000 13.2zm8.403-15.3a6.64 6.64 0 01-9.4 0 6.64 6.64 0 010-9.4c2.6-2.6 6.8-2.6 9.4 0 2.6 2.7 2.6 6.9 0 9.4z" stroke="#36B68A" stroke-width="2"/><path d="M17.317 62.75c12.7 7.5 29.4 5.8 40.3-5.1 13-13 13-34 0-46.9-13-13-34-13-46.9 0-11 11-12.7 27.9-4.9 40.7" stroke="#fff" stroke-width="2" stroke-dasharray="2 2"/></svg>