<svg width="58" height="69" viewBox="0 0 58 69" fill="none" xmlns="http://www.w3.org/2000/svg"><path d="M28.8 1C13.5 1 1 13.5 1 28.8 1 44.2 28.8 68 28.8 68s27.8-23.7 27.8-39.1C56.7 13.5 44.2 1 28.8 1z" stroke="#fff" stroke-width="2" stroke-linecap="round" stroke-linejoin="round"/><path d="M28.898 44.4c-8.6 0-15.5-7-15.5-15.5 0-8.6 7-15.5 15.5-15.5 8.6 0 15.5 7 15.5 15.5s-7 15.5-15.5 15.5z" stroke="#fff" stroke-width="2" stroke-linecap="round" stroke-linejoin="round"/><path d="M8.2 28.8v-1.4" stroke="#3AAC85" stroke-width="2"/><path d="M8.598 24.8c1.7-8.6 8.8-15.3 17.6-16.4" stroke="#3AAC85" stroke-width="2" stroke-dasharray="2 2"/><path d="M27.5 8.2h1.4M32.3 25v-.8c0-1.4-1.1-2.4-2.4-2.4h-2c-1.3 0-2.4 1.1-2.4 2.4v1.7c0 .8.6 1.4 1.4 1.9l3.7 1.4m-5.202 3v.8c0 1.3 1.1 2.4 2.4 2.4h2c1.3 0 2.4-1.1 2.4-2.4v-1.7c0-.8-.6-1.4-1.4-1.9l-3.5-1.4M29 18.5v3.6m0 12.7v3.7" stroke="#3AAC85" stroke-width="2"/></svg>