<svg width="68" height="83" viewBox="0 0 68 83" fill="none" xmlns="http://www.w3.org/2000/svg"><g clip-path="url(#clip0)" stroke-width="2"><path d="M38.3 16.6c15.8 2.3 28 15.9 28 32.3 0 18-14.6 32.6-32.6 32.6C15.6 81.5 1 66.9 1 48.9c0-16.5 12.2-30.1 28.1-32.3" stroke="#282D33"/><path d="M51.9 49.8c-.1-10.6-8.7-19.2-19.4-19.2h-.3m8.002-22.5c0 .8-.6 1.4-1.4 1.4h-10.3c-.8 0-1.4-.6-1.4-1.4V2.5c0-.8.6-1.4 1.4-1.4h10.3c.8 0 1.4.6 1.4 1.4v5.6zM10.4 23.3l-2.3-3.4c-.3-.4-.2-1 .2-1.2l5.3-3.6c.4-.3 1-.2 1.2.2l2.3 3.4m39.8 4.6l2.3-3.4c.3-.4.2-1-.2-1.2l-5.3-3.6c-.4-.3-.9-.2-1.2.2l-2.3 3.4" stroke="#282D33"/><path d="M33.398 21.4v4.7M19.7 25.3l2.3 4M9.7 35.4l4 2.3M6.2 49.2h4.6M10 62.9l4-2.4m6.098 12.3l2.4-4m11.4 7.6v-4.7m13.702.8l-2.3-4m12.198-6.1l-3.9-2.3M61.1 48.6h-4.6m.8-13.7l-4 2.4M47.1 25l-2.3 4" stroke="#649DDE"/><path d="M35.2 46.9l9.7-9.9m-8.5 11.9c0-1.5-1.2-2.7-2.7-2.7-1.5 0-2.7 1.2-2.7 2.7 0 1.5 1.2 2.7 2.7 2.7 1.4 0 2.7-1.2 2.7-2.7zm-2.798-30.5V9.3" stroke="#282D33"/></g><defs><clipPath id="clip0"><path fill="#fff" d="M0 0h67.3v82.5H0z"/></clipPath></defs></svg>