<?xml version="1.0" encoding="utf-8"?>
<!-- Generator: Adobe Illustrator 23.0.3, SVG Export Plug-In . SVG Version: 6.00 Build 0)  -->
<svg version="1.1" id="Layer_1" xmlns="http://www.w3.org/2000/svg" xmlns:xlink="http://www.w3.org/1999/xlink" x="0px" y="0px"
	 viewBox="0 0 72 72" style="enable-background:new 0 0 72 72;" xml:space="preserve">
<g>
	<rect x="15.8" y="66.28" style="fill:#E0E1E2;" width="2.33" height="2.33"/>
	<path style="fill:#E0E1E2;" d="M72,25.51c0-5.72-4.65-10.37-10.37-10.37h-5.98l-0.01-0.1C55.04,8.46,49.6,3.5,42.99,3.5
		c-2,0-4,0.48-5.78,1.4l-0.07,0.04l-0.06-0.06C33.99,1.73,29.89,0,25.51,0c-0.01,0-0.02,0-0.03,0C17.01,0,9.92,6.62,9.36,15.08
		l-0.01,0.09l-0.09,0.01C3.98,15.76,0,20.2,0,25.51c0,5.72,4.65,10.37,10.37,10.37h19.68v-2.11H10.37c-4.56,0-8.27-3.71-8.27-8.28
		c0-4.56,3.71-8.26,8.27-8.26h1.05v-1.05c0-7.77,6.32-14.09,14.09-14.09c4.07,0,7.94,1.77,10.62,4.84l0.58,0.67l0.76-0.46
		c1.67-1.02,3.58-1.57,5.52-1.57c5.84,0,10.59,4.75,10.59,10.59v1.05h8.05c4.56,0,8.28,3.71,8.28,8.27s-3.71,8.28-8.28,8.28H40.17
		v2.11h21.47C67.35,35.88,72,31.23,72,25.51z"/>
	<path style="fill:#E0E1E2;" d="M8.92,48.92V72H25V48.92H8.92z M22.9,69.89H11.02V51.02H22.9V69.89z"/>
	<path style="fill:#E0E1E2;" d="M66.04,67.34V46.59H35.97v20.75h10.49v2.56h-3.5V72h16.09v-2.11h-3.5v-2.56H66.04z M53.46,69.89
		h-4.89v-2.56h4.89V69.89z M38.1,65.23V48.69h25.86v16.54H38.1z"/>
	<polygon style="fill:#7EBAEE;" points="36.05,40.18 36.05,24.19 40.54,28.68 42.03,27.19 34.99,20.16 27.96,27.19 29.45,28.68 
		33.94,24.19 33.94,40.18 15.91,40.18 15.91,46.77 18.01,46.77 18.01,42.29 49.95,42.29 49.95,44.44 52.06,44.44 52.06,40.18 	"/>
</g>
</svg>
