<svg width="160" height="68" viewBox="0 0 160 68" fill="none" xmlns="http://www.w3.org/2000/svg"><path d="M31.3 13.7C44.1 15.6 54 26.6 54 40c0 14.6-11.9 26.5-26.5 26.5S1 54.6 1 40c0-13.4 9.9-24.4 22.8-26.2" stroke="#fff" stroke-width="2"/><path d="M42.398 40.7c-.1-8.6-7.1-15.6-15.8-15.6h-.2m6.404-18.3c0 .6-.5 1.1-1.2 1.1h-8.4c-.6 0-1.1-.5-1.1-1.1V2.2c0-.6.5-1.2 1.1-1.2h8.4c.6 0 1.2.5 1.1 1.1l.1 4.7zM8.598 19.2l-1.9-2.8c-.2-.3-.1-.8.2-1l4.3-2.9c.3-.2.8-.1 1 .2l1.9 2.8m32.3 3.7l1.9-2.8c.2-.3.1-.8-.2-1l-4.3-2.9c-.3-.2-.8-.1-1 .2l-1.9 2.8" stroke="#fff" stroke-width="2"/><path d="M27.3 17.7v3.7m-11.1-.6L18 24m-9.902 5l3.2 1.9M5.2 40.2H9m-.7 11.1l3.3-1.9m4.9 10l1.9-3.3m9.3 6.2v-3.8m11.1.7L37 55.9m9.9-5l-3.2-1.8m6.1-9.3H46m.698-11.1l-3.3 1.8m-4.9-9.9l-1.9 3.2" stroke="#3AAC85" stroke-width="2"/><path d="M28.8 38.4l7.9-8m-7 9.6c0-1.2-1-2.2-2.2-2.2-1.2 0-2.2 1-2.2 2.2 0 1.2 1 2.2 2.2 2.2 1.2 0 2.2-1 2.2-2.2zm-2.2-24.8V7.8m131.5 2h-47v53.7h47V9.8z" stroke="#fff" stroke-width="2"/><path fill-rule="evenodd" clip-rule="evenodd" d="M124.398 28v-1.9h22.1V28h-22.1zm0 9.6v-1.9h22.1v1.9h-22.1zm0 9.6v-1.9h22.1v1.9h-22.1z" fill="#3AAC85"/><path d="M82 29.6v18m9-9H73" stroke="#fff" stroke-width="2"/></svg>