<svg xmlns="http://www.w3.org/2000/svg" viewBox="0 0 68.56 60"><path d="M46.94 43.12l-1.94-.6c-.06.19-.13.37-.2.55h-7.1c.2-1.12.37-2.27.48-3.46l-2.02-.18a34.85 34.85 0 01-.52 3.65h-10.6v-14.2h4.82v-2.03h-4.82V14.01c1.24.06 2.47.21 3.67.47l.43-1.98c-1.67-.36-3.4-.55-5.12-.55-.27 0-.54.01-.8.04-9.66.32-17.9 6.37-21.4 14.86h-.01l-.2.54c-.27.7-.5 1.41-.71 2.14l-.03.09c-.17.61-.31 1.24-.43 1.87-.03.15-.05.3-.08.44-.09.54-.17 1.08-.22 1.63-.03.25-.04.51-.06.77-.02.33-.04.67-.05 1-.01.22-.03.43-.03.65 0 .21.02.42.03.63.01.34.02.67.05 1.01.02.25.03.51.06.76.05.55.13 1.1.23 1.64.03.15.05.29.08.44.12.63.26 1.26.43 1.87.01.03.02.06.03.1.2.71.43 1.41.69 2.09l.22.59h.01c3.5 8.5 11.75 14.55 21.42 14.86.25.02.51.03.77.03.18 0 .35-.03.52-.04 10.35-.22 19.31-6.92 22.4-16.84zM35.19 45.1c-1.84 7.09-5.72 12.11-10.15 12.78V45.1h10.15zM23.01 57.89c-4.52-.67-8.36-5.73-10.17-12.79h10.17v12.79zm0-14.82H12.39c-.43-2.23-.66-4.61-.66-7.09 0-2.48.23-4.87.66-7.1h10.62v14.19zm-19.79-.01c-.2-.58-.37-1.16-.52-1.74v-.01c-.13-.49-.22-.99-.31-1.49-.03-.14-.05-.29-.08-.43-.07-.43-.12-.85-.16-1.28-.03-.28-.05-.56-.06-.84-.01-.17-.02-.35-.02-.52-.01-.26-.02-.52-.02-.78s.01-.52.02-.78c.01-.17.01-.34.02-.52l.06-.84c.04-.42.09-.85.16-1.27.02-.15.05-.3.08-.45.09-.49.19-.99.31-1.48v-.02c.15-.59.32-1.17.52-1.74h7.11c-.41 2.24-.64 4.63-.64 7.1 0 2.47.22 4.85.64 7.09H3.22c0 .01 0 .01 0 0zm9.62-16.21c1.81-7.06 5.64-12.12 10.17-12.79v12.79H12.84zm3.99-11.63c-2.7 2.65-4.85 6.73-6.05 11.63H4.04c2.48-5.42 7.11-9.66 12.79-11.63zM4.04 45.1h6.74c1.2 4.9 3.35 8.99 6.06 11.64A22.09 22.09 0 014.04 45.1zm27.27 11.61c2.67-2.62 4.78-6.68 5.97-11.61H44c-2.5 5.52-7.1 9.66-12.69 11.61z" fill="#282d33"/><path d="M51.17 41.48h-7.41l-.44-5.29c-1.37-.4-2.68-.97-3.89-1.72l-3.91 3.31-5.23-5.24 3.43-4.05c-.69-1.25-1.2-2.58-1.54-3.97l-5.1-.42v-7.41l5.29-.44c.4-1.37.97-2.68 1.72-3.89l-3.31-3.91 5.24-5.24 4.05 3.43c1.25-.69 2.58-1.2 3.97-1.54l.42-5.1h7.41l.44 5.29c1.37.4 2.68.97 3.9 1.72l3.91-3.31 5.24 5.24-3.43 4.05c.69 1.25 1.2 2.58 1.54 3.97l5.1.43v7.41l-5.29.44c-.4 1.37-.97 2.68-1.72 3.9l3.31 3.91-5.24 5.24-4.05-3.43c-1.25.69-2.58 1.2-3.97 1.54l-.44 5.08zm-5.53-2.03h3.67l.4-4.76.76-.14c1.67-.32 3.24-.93 4.69-1.81l.63-.38 3.73 3.16 2.59-2.6-3.08-3.64.43-.64c.95-1.4 1.64-2.95 2.03-4.6l.17-.71 4.87-.41v-3.67l-4.76-.4-.14-.76c-.32-1.67-.93-3.25-1.81-4.69l-.38-.63 3.16-3.73L60 6.45l-3.64 3.08-.64-.43c-1.4-.95-2.95-1.64-4.6-2.03l-.72-.16-.4-4.88h-3.67l-.4 4.76-.76.14c-1.67.32-3.24.93-4.69 1.81l-.63.38-3.73-3.16-2.59 2.59 3.08 3.64-.43.64c-.95 1.4-1.64 2.95-2.03 4.6l-.17.71-4.87.41v3.67l4.76.4.14.76c.32 1.67.92 3.25 1.81 4.69l.38.63-3.16 3.73 2.59 2.59 3.64-3.08.64.43c1.4.95 2.95 1.64 4.6 2.03l.71.17.42 4.88z" fill="#6da3e0"/><path d="M47.82 29.93c-5.07 0-9.19-4.12-9.19-9.19 0-5.07 4.12-9.19 9.19-9.19 5.07 0 9.19 4.12 9.19 9.19-.01 5.07-4.13 9.19-9.19 9.19zm0-16.35c-3.95 0-7.16 3.21-7.16 7.16s3.21 7.16 7.16 7.16 7.16-3.21 7.16-7.16c-.01-3.95-3.22-7.16-7.16-7.16z" fill="#6da3e0"/></svg>