<svg xmlns="http://www.w3.org/2000/svg" viewBox="0 0 64.57 61"><path d="M32.49 61c-.32 0-.64 0-.96-.02l.06-2c.96.03 1.94.01 2.9-.06l.14 2c-.7.05-1.43.08-2.14.08zm-4.05-.27a31.69 31.69 0 01-3.06-.57l.46-1.95c.94.22 1.9.4 2.86.53l-.26 1.99zm9.28-.18l-.34-1.98c.95-.16 1.9-.38 2.83-.64l.54 1.93c-.99.29-2.01.52-3.03.69zM22.4 59.29c-.97-.34-1.94-.74-2.88-1.18l.85-1.81c.87.41 1.78.78 2.69 1.1l-.66 1.89zm21.3-.42l-.74-1.86c.9-.36 1.79-.76 2.64-1.2l.92 1.78c-.91.47-1.86.9-2.82 1.28zm-26.92-2.22a31.49 31.49 0 01-2.58-1.74l1.2-1.6c.77.58 1.58 1.13 2.41 1.62l-1.03 1.72zm32.43-.64l-1.1-1.68c.81-.53 1.6-1.11 2.34-1.71l1.26 1.55c-.8.66-1.64 1.28-2.5 1.84zm4.81-3.91l-1.42-1.42c.68-.68 1.34-1.41 1.95-2.15l1.55 1.27c-.65.8-1.35 1.58-2.08 2.3zm3.93-4.8l-1.67-1.11c.53-.81 1.03-1.65 1.47-2.5l1.78.93c-.48.92-1.01 1.82-1.58 2.68zm2.88-5.5l-1.86-.74c.36-.9.67-1.82.94-2.75l1.93.55c-.29.99-.63 1.98-1.01 2.94zm1.7-5.97l-1.97-.35c.17-.95.29-1.92.36-2.88l2 .14c-.09 1.04-.21 2.08-.39 3.09zm-1.55-6.13c-.03-.97-.1-1.95-.23-2.89l1.99-.26c.13 1.01.21 2.06.24 3.1l-2 .05zM3.94 41.26c-.36-.97-.68-1.97-.94-2.97l1.94-.51c.24.93.54 1.86.88 2.76l-1.88.72zm-1.58-6.01c-.16-1.02-.27-2.06-.32-3.09l2-.11c.05.97.15 1.94.3 2.89l-1.98.31zm1.67-6.1l-2-.09c.05-1.03.15-2.07.3-3.09l1.98.3c-.14.94-.24 1.92-.28 2.88zm.85-5.73l-1.94-.5c.26-1 .57-2 .92-2.97l1.88.69c-.33.91-.62 1.84-.86 2.78zm2.01-5.44l-1.8-.88c.45-.93.96-1.84 1.51-2.72l1.7 1.06c-.52.82-.99 1.67-1.41 2.54zm3.06-4.92l-1.58-1.23c.63-.82 1.31-1.61 2.02-2.36l1.45 1.38c-.66.71-1.29 1.45-1.89 2.21zm4-4.2l-1.3-1.52c.79-.67 1.61-1.31 2.46-1.9l1.14 1.65c-.79.54-1.56 1.14-2.3 1.77zm4.76-3.31l-.97-1.75c.9-.5 1.84-.96 2.79-1.36l.79 1.84c-.89.38-1.76.8-2.61 1.27zm25.21-1.16c-.89-.39-1.8-.74-2.72-1.03l.61-1.91c.98.32 1.96.69 2.91 1.1l-.8 1.84zM24.04 3.28l-.59-1.91c.99-.31 2-.56 3.01-.77l.39 1.97c-.94.18-1.88.42-2.81.71zm14.36-.66c-.94-.2-1.91-.35-2.87-.45l.21-1.99c1.03.11 2.06.27 3.07.48l-.41 1.96zm-8.67-.48l-.19-2c.98-.09 1.99-.15 2.96-.14h.15l-.02 2h-.13c-.93.01-1.86.05-2.77.14zm2.76 49.32a20.99 20.99 0 01-17.14-8.9l1.64-1.15c3.55 5.04 9.35 8.05 15.5 8.05 10.45 0 18.95-8.5 18.95-18.95 0-1.8-.25-3.58-.75-5.3l1.92-.56c.55 1.9.83 3.87.83 5.86.01 11.55-9.39 20.95-20.95 20.95zM11.6 32.2c-.05-.56-.07-1.13-.07-1.7 0-11.56 9.4-20.96 20.96-20.96 5.25 0 10.27 1.95 14.14 5.49l-1.35 1.48c-3.5-3.2-8.04-4.97-12.79-4.97-10.45 0-18.95 8.5-18.95 18.95 0 .52.02 1.03.06 1.54l-2 .17z" fill="#282d33"/><path d="M5.52 54.55L0 49.33l26.94-28.52 9.91 8.49 15.31-14.83h-4.27v-7.6h16.68v16.68h-7.6v-3.17L37.16 39.57l-9.67-8.29L5.52 54.55zm-2.69-5.3l2.61 2.46 21.91-23.19 9.73 8.34 21.9-21.21v5.9h3.59V8.87H49.89v3.59h7.22L36.93 32.01l-9.84-8.44L2.83 49.25z" fill="#6da3e0"/></svg>