<svg xmlns="http://www.w3.org/2000/svg" viewBox="0 0 24 23.97"><path d="M12.86 23.97l-.1-1.45c.58-.04 1.17-.13 1.73-.27l.34 1.42c-.65.15-1.31.25-1.97.3zm-2-.02c-.66-.06-1.32-.18-1.97-.35l.38-1.41c.56.15 1.14.26 1.73.31l-.14 1.45zm5.86-.91l-.57-1.34c.53-.23 1.05-.51 1.55-.82l.79 1.22c-.56.36-1.16.67-1.77.94zm-9.71-.12c-.61-.28-1.19-.61-1.74-.98l.82-1.21c.48.33 1 .62 1.53.86l-.61 1.33zm13.06-2.04l-.98-1.08c.43-.39.83-.82 1.2-1.29l1.14.9c-.41.53-.87 1.03-1.36 1.47zm-16.35-.2c-.48-.46-.93-.96-1.33-1.49l1.17-.87c.35.47.74.91 1.17 1.31l-1.01 1.05zm18.81-2.93l-1.28-.7c.28-.51.52-1.05.71-1.61l1.38.48c-.21.63-.49 1.25-.81 1.83zm-21.2-.25c-.31-.59-.56-1.21-.77-1.85l1.39-.44c.18.55.4 1.1.67 1.62l-1.29.67zm22.51-3.51l-1.44-.24c.1-.58.14-1.17.14-1.75H24c0 .66-.06 1.33-.16 1.99zM.12 13.71C.04 13.15 0 12.57 0 12v-.29l1.46.04V12c0 .5.04 1.01.11 1.5l-1.45.21zm22.35-2.96c-.07-.58-.19-1.16-.35-1.72l1.4-.41c.19.64.32 1.3.4 1.96l-1.45.17zM1.64 10L.21 9.73c.13-.65.31-1.3.54-1.92l1.36.51c-.2.54-.36 1.11-.47 1.68zm19.85-2.61c-.26-.52-.56-1.03-.9-1.51l1.19-.85c.39.54.73 1.12 1.02 1.72l-1.31.64zM2.87 6.73L1.61 6c.33-.58.72-1.13 1.14-1.64l1.12.93c-.37.45-.71.93-1 1.44zm16.59-2.18c-.41-.41-.86-.8-1.34-1.13l.85-1.19c.54.39 1.05.82 1.52 1.29l-1.03 1.03zM5.1 4.03l-.95-1.1c.49-.43 1.04-.83 1.6-1.18l.76 1.24c-.5.31-.97.66-1.41 1.04zm11.51-1.52c-.53-.26-1.08-.47-1.64-.63l.41-1.4c.64.19 1.27.43 1.86.72l-.63 1.31zm-8.53-.3L7.54.86C8.16.61 8.8.41 9.45.27l.31 1.43c-.57.12-1.14.29-1.68.51zm5.17-.68c-.57-.07-1.16-.09-1.75-.06L11.43.02c.66-.03 1.34-.01 2 .07l-.18 1.44z" fill="#282d33"/><g fill="#6ec8a9"><path d="M11.27 5.56h1.46v3.87h-1.46z"/><path d="M12 17.77a5.8 5.8 0 01-5.79-5.79c0-2.46 1.56-4.65 3.88-5.46l.48 1.38a4.338 4.338 0 00-2.91 4.08c0 2.39 1.94 4.33 4.33 4.33s4.33-1.94 4.33-4.33c0-1.84-1.17-3.48-2.91-4.08l.48-1.38c2.32.81 3.88 3 3.88 5.46.02 3.2-2.58 5.79-5.77 5.79z"/></g></svg>