<svg xmlns="http://www.w3.org/2000/svg" viewBox="0 0 63 63"><path d="M22.14 47.26l-1.72-1.25-9.67 9.67a11.38 11.38 0 00-3.43-3.43l9.67-9.67-1.46-1.46-9.97 9.97-.08.14L0 63l11.77-5.47.14-.08 10.23-10.19zM4.26 58.74l2.14-4.62c.48.33.93.7 1.35 1.12.42.42.79.87 1.12 1.35l-4.61 2.15z" fill="#6da3e0"/><g fill="#282d33"><path d="M52.96 39.98l2-7.28-3.25-1.68c.02-.36.02-.73.02-1.11l3.13-1.58-1.91-7.3-3.3.15c-.34-.68-.68-1.29-1.04-1.85l-1.74 1.12c.41.64.81 1.37 1.2 2.23l.29.63 3.02-.14 1.06 4.07-2.82 1.42.03.66c.03.8.02 1.53-.04 2.22l-.06.69 2.98 1.54-1.11 4.05-3.43-.19-.31.59c-.32.62-.65 1.18-1.02 1.72l-.38.56 1.93 3.02-2.99 2.95-3-1.97-.57.37c-.53.35-1.08.67-1.63.95l-.59.3.17 3.69-4.07 1.06-1.62-3.2-.69.05c-.61.04-1.23.05-1.91.03l-.65-.02L29 50.96l-4.05-1.11.19-3.41-.64-.29c-.63-.29-1.25-.62-1.84-.98l-.55-.34-2.86 1.83-2.95-2.99 1.7-2.61-.42-.58c-.5-.69-.92-1.34-1.28-2l-.31-.57-3.05.14-1.06-4.07 2.47-1.25-.08-.72c-.1-.86-.13-1.76-.1-2.68l.02-.66-2.4-1.24 1.11-4.05 2.46.14.29-.66c.41-.93.87-1.79 1.39-2.58l.37-.56-1.31-2.05 2.99-2.95 1.93 1.26.58-.41c.84-.6 1.72-1.12 2.61-1.55l.62-.3-.11-2.34 4.07-1.06 1.03 2.04.69-.05c1-.08 2.01-.07 3.01.02l.69.06 1.12-2.15 4.05 1.11-.14 2.48.61.3c.83.41 1.64.9 2.4 1.45l1.21-1.68c-.67-.48-1.36-.92-2.08-1.3l.16-2.8-7.28-2L33 10.22c-.65-.03-1.3-.04-1.96-.01L29.88 7.9l-7.31 1.91.12 2.66c-.58.31-1.15.65-1.71 1.02l-2.15-1.41-5.37 5.31 1.5 2.34c-.32.52-.61 1.08-.89 1.65l-2.71-.15-1.99 7.28 2.74 1.42c0 .54.02 1.07.05 1.6l-2.69 1.36 1.91 7.31 3.44-.15c.21.36.44.71.69 1.08l-1.85 2.82 5.31 5.37 3.19-2.04c.28.16.57.31.86.46l-.21 3.69 7.28 1.99 1.85-3.56c.26 0 .52 0 .78-.01l1.75 3.48 7.3-1.91-.18-4.04c.22-.12.43-.25.65-.38l3.28 2.15 5.37-5.31-2.11-3.3c.15-.24.3-.49.44-.75l3.74.19z"/><path d="M24.75 35.47c.33.49.71.96 1.14 1.39 1.72 1.72 4 2.66 6.43 2.66 2.43 0 4.71-.95 6.43-2.66a9.124 9.124 0 002.37-8.72l-2 .52c.62 2.4-.08 4.98-1.83 6.74a6.974 6.974 0 01-4.97 2.06c-1.88 0-3.64-.73-4.97-2.06-.33-.33-.63-.69-.88-1.07a6.933 6.933 0 01-1.18-3.89c0-1.17.29-2.3.82-3.31.32-.6.74-1.16 1.23-1.66a7 7 0 017.61-1.54l.78-1.92a9.074 9.074 0 00-9.85 2c-.64.64-1.18 1.37-1.6 2.15-.7 1.3-1.07 2.76-1.07 4.28.02 1.81.55 3.55 1.54 5.03z"/></g><path d="M62.43 4.44L58.57.58C58.2.21 57.71 0 57.24 0c-.41 0-.8.16-1.08.44l-30.8 30.83c.09.79.32 1.56.66 2.26l23.13-23.16 3.47 3.47-23.07 23.04c.75.32 1.55.51 2.38.55l30.63-30.6c.63-.63.57-1.68-.13-2.39zm-8.34 7.94l-3.47-3.47 2.88-2.88 3.47 3.47-2.88 2.88zm4.34-4.34L56.7 6.3l-1.74-1.74 2.33-2.33 3.47 3.47-2.33 2.34z" fill="#6da3e0"/></svg>