<svg xmlns="http://www.w3.org/2000/svg" viewBox="0 0 61 61"><path d="M59.06 31.47v27.59h-27.6V49.02c0-.22.23-.38.45-.38.19 0 .3.11.35.17a5.769 5.769 0 004.6 2.26c3.2 0 5.81-2.61 5.81-5.81s-2.61-5.81-5.81-5.81c-1.81 0-3.48.82-4.6 2.26-.05.06-.16.17-.35.17-.22 0-.45-.16-.45-.38V31.46l-1.94-1.94H19.48c-.22 0-.38-.23-.38-.45 0-.19.11-.3.17-.35a5.769 5.769 0 002.26-4.6c0-3.2-2.61-5.81-5.81-5.81s-5.81 2.61-5.81 5.81c0 1.81.82 3.48 2.26 4.6.06.05.17.16.17.35 0 .22-.16.45-.38.45H1.93V1.94h27.6V0H0v61h61V31.47h-1.94zM1.94 59.06v-27.6h10.21c1.44 0 2.15-1.16 2.15-2.38 0-.73-.33-1.41-.91-1.87a3.86 3.86 0 01-1.52-3.07c0-2.14 1.74-3.87 3.87-3.87s3.87 1.74 3.87 3.87c0 1.2-.55 2.32-1.52 3.07-.58.46-.91 1.14-.91 1.87 0 1.22.71 2.38 2.15 2.38h10.21v10.22c0 1.44 1.16 2.15 2.38 2.15.73 0 1.41-.33 1.87-.91a3.86 3.86 0 013.07-1.52c2.14 0 3.87 1.74 3.87 3.87s-1.74 3.87-3.87 3.87c-1.2 0-2.32-.55-3.07-1.52-.46-.58-1.14-.91-1.87-.91-1.22 0-2.38.71-2.38 2.15l-.01 10.21H1.94z" fill="#282d33"/><path d="M36.14 0h2.87v1.94h-2.87zm17.19 0h2.87v1.94h-2.87zM47.6 0h2.87v1.94H47.6zm-5.73 0h2.87v1.94h-2.87zm17.19 0H61v1.94h-1.94zm0 5.29H61v2.39h-1.94zm0 5.26H61v2.87h-1.94zm0 11.49H61v2.87h-1.94zm0-5.74H61v2.87h-1.94zm0 13.23h-9.24c-1.44 0-2.15 1.16-2.15 2.38 0 .73.33 1.41.91 1.87a3.86 3.86 0 011.52 3.07c0 2.14-1.74 3.87-3.87 3.87s-3.87-1.74-3.87-3.87c0-1.2.55-2.32 1.52-3.07.58-.46.91-1.14.91-1.87 0-1.22-.71-2.38-2.15-2.38H31.46V19.49c0-.22.23-.38.45-.38.19 0 .3.11.35.17a5.769 5.769 0 004.6 2.26c3.2 0 5.81-2.61 5.81-5.81s-2.61-5.81-5.81-5.81c-1.81 0-3.48.82-4.6 2.26-.05.06-.16.17-.35.17-.22 0-.45-.16-.45-.38V1.93h1.81V0h-3.75l.01 12.15c0 1.44 1.16 2.15 2.38 2.15.73 0 1.41-.33 1.87-.91a3.86 3.86 0 013.07-1.52c2.14 0 3.87 1.74 3.87 3.87s-1.74 3.87-3.87 3.87c-1.2 0-2.32-.55-3.07-1.52-.46-.58-1.14-.91-1.87-.91-1.22 0-2.38.71-2.38 2.15l-.01 12.15h12.94c.22 0 .38.23.38.45 0 .19-.11.3-.17.35a5.769 5.769 0 00-2.26 4.6c0 3.2 2.61 5.81 5.81 5.81s5.81-2.61 5.81-5.81c0-1.81-.82-3.48-2.26-4.6a.445.445 0 01-.17-.35c0-.22.16-.45.38-.45h11V27.8h-1.94v1.73z" fill="#6da3e0"/></svg>