<svg xmlns="http://www.w3.org/2000/svg" viewBox="0 0 66.95 60.3"><path d="M64.95 39.61h2v3.12h-2zm0 6.23h2v3.11h-2zm0-12.46h2v3.11h-2zm0 18.69h2v3.11h-2zm0-24.91h2v3.11h-2zm0-12.46h2v3.11h-2zm0 6.23h2v3.11h-2zm-.5 37.37v2h2.5v-2h-2zm-41.3 0h2.95v2h-2.95zm-5.9 0h2.95v2h-2.95zm-11.8 0H8.4v2H5.45zm29.5 0h2.95v2h-2.95zm-23.6 0h2.95v2h-2.95zm17.7 0H32v2h-2.95zm23.6 0h2.95v2h-2.95zm5.9 0h2.95v2h-2.95zm-11.8 0h2.95v2h-2.95zm-5.9 0h2.95v2h-2.95zM0 58.3v2h2.5v-2H2zm0-31.14h2v3.11H0zm0 6.22h2v3.11H0zm0-12.45h2v3.11H0zm0-6.23h2v3.11H0zm0 37.37h2v3.11H0zm0-12.46h2v3.12H0zm0 6.23h2v3.11H0zM0 0v11.58h2v-2h62.95v2h2V0H0zm2 7.58V2h62.95v5.58H2z" fill="#282d33"/><path fill="#6da3e0" d="M3.97 3.74h2.46v2H3.97zm4.27 0h2.47v2H8.24zm4.26 0h2.47v2H12.5zm13.44 36.74l-9.11-7.23 9.11-7.22 1.25 1.57-7.14 5.65 7.14 5.66zm15.07 0l-1.25-1.57 7.14-5.66-7.14-5.65 1.25-1.57 9.11 7.22zm-11.152 2.548l5.85-20.106 1.921.559-5.85 20.106z"/></svg>