<svg width="132" height="44" viewBox="0 0 132 44" fill="none" xmlns="http://www.w3.org/2000/svg"><path fill-rule="evenodd" clip-rule="evenodd" d="M64.75 10.106c36.52-4.303 66.637-.5 67.238 8.304.7 8.906-28.317 19.512-64.737 23.814C30.73 46.427.613 42.724.012 33.82c-.7-8.805 28.316-19.51 64.737-23.713z" fill="#173159"/><path d="M34.032 6.304h-7.905l-5.703 5.503L22.525 0h-6.504L12.02 22.913h6.504l.8-4.302 2.802-2.302 2.201 6.704h7.204l-4.502-10.806 7.004-5.903zm16.81 1.3c-.701-.7-1.602-1.1-2.702-1.4-1.101-.2-2.702-.3-4.603-.3-1.2 0-2.301.1-3.302.3-1 .2-1.901.4-2.501.8-.9.5-1.601 1-2.202 1.6-.6.601-1 1.402-1.4 2.502l5.903.6c.3-.8.8-1.2 1.2-1.5.501-.3 1.401-.5 2.502-.5.8 0 1.4.1 1.601.5.2.4.3.9.2 1.6-.8.3-1.6.501-2.401.801-.8.3-2.301.5-4.803 1-2.001.401-3.602 1.001-4.403 1.802-.9.8-1.4 1.8-1.6 3.101-.2 1.401.1 2.502 1 3.402.9.901 2.301 1.401 4.303 1.401 1.5 0 2.901-.2 4.002-.7.9-.3 1.8-1 2.801-1.701v1c.1.2.1.5.3 1.001h6.004c-.2-.7-.3-1.2-.3-1.7 0-.501.1-1.002.2-1.802l1.3-7.304c.1-.8.1-1.601 0-2.502-.3-.9-.6-1.5-1.1-2zm-6.004 8.505c-.1.8-.4 1.401-.8 1.901-.3.5-.801.9-1.502 1.2-.7.301-1.4.501-2 .501-.601 0-1.201-.1-1.401-.5-.2-.4-.4-.8-.3-1.2.1-.401.3-.801.8-1.201s1.3-.7 2.701-1.001c1-.2 2.002-.5 2.902-.8l-.4 1.1zM67.65 5.903a8.56 8.56 0 00-3.402.7c-1 .501-2.001 1.201-3.102 2.402l.5-2.701h-5.903l-2.902 16.609h6.404l1.4-7.905c.3-1.5.701-2.5 1.301-3.101.6-.6 1.201-.9 2.002-.9.7 0 1.2.2 1.5.7.3.4.3 1.2.2 2.2l-1.6 9.106h6.403l1.801-10.606c.4-2.201.2-3.802-.6-4.803-.9-1.1-2.301-1.7-4.002-1.7zM88.263 0l-1.401 7.904c-.5-.7-1.201-1.2-1.901-1.5-.7-.3-1.601-.5-2.602-.5-2.001 0-3.802.8-5.403 2.2-1.6 1.401-2.601 3.603-3.102 6.304-.4 2.502-.2 4.603.7 6.304.901 1.7 2.502 2.601 4.703 2.601 1.201 0 2.202-.3 3.202-.8.8-.3 1.601-1.1 2.702-2.101l-.4 2.501h5.903L94.666 0h-6.403zM85.66 14.608c-.3 1.401-.7 2.502-1.4 3.102-.701.6-1.402 1-2.202 1s-1.4-.3-1.801-1c-.4-.6-.5-1.6-.3-3.002.3-1.4.7-2.501 1.3-3.101.6-.6 1.301-.9 2.002-.9.8 0 1.5.3 1.9 1 .701.6.701 1.6.501 2.901zm27.316-2.501c.1-.8.1-1.601-.101-2.502-.1-.9-.5-1.5-1-2-.7-.701-1.601-1.101-2.702-1.401-1.1-.2-2.701-.3-4.602-.3-1.201 0-2.302.1-3.302.3-1.001.2-1.901.4-2.501.8-.901.5-1.602 1-2.202 1.6-.6.601-1 1.402-1.4 2.502l5.903.6c.4-.8.8-1.2 1.2-1.5.601-.3 1.401-.5 2.502-.5.8 0 1.401.1 1.601.5.2.4.3.9.2 1.6-.801.3-1.601.501-2.401.801-.801.3-2.302.5-4.803 1-2.001.401-3.602 1.001-4.403 1.802-.9.8-1.4 1.8-1.6 3.101-.2 1.401.1 2.502 1 3.402.9.901 2.301 1.401 4.302 1.401 1.501 0 2.902-.2 4.003-.7.9-.3 1.801-1 2.801-1.701v1c.1.2.1.5.3 1.001h5.904c-.2-.7-.3-1.2-.3-1.7 0-.501.1-1.002.2-1.802l1.401-7.304zm-6.904 4.002c-.1.8-.401 1.401-.801 1.901-.3.5-.8.9-1.501 1.2-.7.301-1.4.501-2.001.501-.7 0-1.201-.1-1.401-.5-.2-.4-.4-.8-.3-1.2.1-.401.3-.801.801-1.201.5-.4 1.3-.7 2.701-1.001 1.001-.2 2.001-.5 2.902-.8l-.4 1.1zm-89.25 13.508c0 .6-.2 1.2-.7 1.5-.5.3-1.101.5-1.902.5-.8 0-1.4-.1-2-.4v-1.4c.5.2.9.3 1.2.5.3.1.6.1.9.1.3 0 .5-.1.8-.2a.55.55 0 00.301-.5c0-.1-.1-.3-.1-.3l-.3-.3c-.1-.1-.5-.3-.9-.5s-.801-.401-1.001-.601c-.2-.2-.4-.4-.5-.7-.1-.3-.2-.5-.2-.901 0-.6.2-1.1.6-1.5.4-.301 1-.501 1.8-.501.3 0 .701.1 1.001.1.3.1.7.2 1 .3l-.5 1.2c-.4-.1-.7-.3-1-.3-.3 0-.5-.1-.8-.1-.3 0-.5.1-.7.2-.1.1-.201.3-.201.5 0 .101 0 .301.1.301s.1.2.3.3c.1.1.5.3 1 .5.701.3 1.102.6 1.402 1.001.3.4.4.8.4 1.2zm14.508-1.501c0 1.2-.3 2.001-.9 2.701-.6.6-1.401 1.001-2.502 1.001-1.1 0-1.9-.3-2.501-1-.5-.6-.9-1.501-.9-2.702 0-1.2.3-2.001.9-2.702.5-.6 1.4-1 2.501-1 1.1 0 1.901.3 2.502 1 .4.6.9 1.501.9 2.702zm-5.203 0c0 .8.1 1.4.5 1.801.3.4.801.6 1.401.6 1.201 0 1.801-.8 1.801-2.401 0-1.601-.6-2.401-1.8-2.401-.601 0-1.001.2-1.401.6-.4.4-.5 1-.5 1.8zm14.709 3.502h-1.501v-7.004h4.002v1.2h-2.601v1.802h2.401v1.2h-2.401l.1 2.802zm13.507 0h-1.5v-5.803H50.94v-1.201h5.303v1.2h-1.9v5.804zm16.51 0h-1.701l-1-3.702c-.1-.1-.1-.4-.2-.8s-.1-.701-.1-.801c0 .2-.101.5-.101.8-.1.4-.1.7-.2.8l-1 3.703h-1.702l-1.8-7.004h1.5l.9 3.802c.1.7.3 1.3.3 1.801 0-.2.1-.5.1-.8.101-.4.101-.7.201-.9l1-4.003h1.401l1.001 4.002c.1.2.1.5.1.8.1.3.1.701.1 1.001 0-.3.1-.5.1-1 .1-.4.1-.7.2-.9l.9-3.803h1.502l-1.501 7.004zm13.707 0l-.5-1.701h-2.6l-.501 1.701h-1.601l2.501-7.104h1.801l2.502 7.104H84.56zm-.9-2.902c-.5-1.5-.8-2.401-.8-2.601-.1-.2-.1-.3-.1-.5-.1.4-.4 1.4-.9 3.101h1.8zm11.606.2v2.702h-1.5v-7.004h2c1.001 0 1.602.2 2.102.5.5.3.7.9.7 1.601 0 .4-.1.8-.3 1.1-.2.301-.5.501-1 .801 1.1 1.601 1.8 2.602 2 3.102h-1.6l-1.701-2.701c0-.1-.7-.1-.7-.1zm0-1.2h.5c.501 0 .801-.1 1.001-.2.2-.1.3-.4.3-.8 0-.301-.1-.501-.3-.701-.2-.1-.6-.2-1.1-.2h-.5l.1 1.9zm15.81 3.902h-4.003v-7.004h4.003v1.2h-2.602v1.602h2.401v1.2h-2.401v1.801h2.602v1.201z" fill="#fff"/></svg>