<svg width="51" height="51" fill="none" xmlns="http://www.w3.org/2000/svg"><g clip-path="url(#a)"><path d="M25.526 38.718 7.338 19.99A10.516 10.516 0 0 1 5.323 7.73a10.836 10.836 0 0 1 17.233-2.76l2.97 2.707L28.5 4.97a10.836 10.836 0 0 1 17.23 2.76 10.52 10.52 0 0 1-2.014 12.26l-18.19 18.728z" fill="#FFD400"/><path d="m9.817 49.3-3.814-4.768a8.53 8.53 0 0 1-1.87-5.326V29.41a2.842 2.842 0 0 1 2.841-2.841v0a2.84 2.84 0 0 1 2.843 2.841v7.104" stroke="#fff" stroke-width="1.5" stroke-linecap="round" stroke-linejoin="round"/><path d="M18.342 49.3v-5.941a8.53 8.53 0 0 0-1.432-4.737l-2.166-3.247a2.652 2.652 0 0 0-3.639-.91c-.036.021-.071.044-.107.067a2.654 2.654 0 0 0-.894 3.4l2.55 4.263M40.43 36.512V29.41a2.84 2.84 0 0 1 2.84-2.841v0a2.842 2.842 0 0 1 2.842 2.841v9.796a8.52 8.52 0 0 1-1.87 5.325L40.43 49.3" stroke="#fff" stroke-width="1.5" stroke-linecap="round" stroke-linejoin="round"/><path d="m37.587 42.196 2.554-4.263a2.654 2.654 0 0 0-.894-3.4v0a2.652 2.652 0 0 0-3.746.843l-2.165 3.247a8.517 8.517 0 0 0-1.432 4.736V49.3M25.526 38.718 7.338 19.99A10.516 10.516 0 0 1 5.323 7.73v-.001a10.836 10.836 0 0 1 17.233-2.76l2.97 2.708L28.5 4.97a10.836 10.836 0 0 1 17.23 2.76v-.001a10.52 10.52 0 0 1-2.014 12.261l-18.19 18.728z" stroke="#fff" stroke-width="1.5" stroke-linecap="round" stroke-linejoin="round"/><mask id="b" style="mask-type:alpha" maskUnits="userSpaceOnUse" x="-4" y="1" width="64" height="21"><path fill="#1E57C3" stroke="#fff" d="M-3.5 1.5h63v20h-63z"/></mask><g mask="url(#b)"><path d="M25.526 38 7.696 19.643l-.008-.009a10.017 10.017 0 0 1-1.92-11.676 10.336 10.336 0 0 1 16.438-2.63l.006.006.008.006 2.969 2.708.336.307.337-.307 2.975-2.707.007-.007.007-.007a10.336 10.336 0 0 1 16.434 2.63 10.02 10.02 0 0 1-1.92 11.678l-.008.008L25.526 38z" fill="#1E57C3" stroke="#fff"/></g></g><defs><clipPath id="a"><path fill="#fff" d="M0 0h51v51H0z"/></clipPath></defs></svg>