<svg xmlns="http://www.w3.org/2000/svg" viewBox="0 0 74.94 61"><g fill="#282d33"><path d="M24.61 33.87h25.72v1.74H24.61z"/><path d="M0 8.71V61h74.94V8.71H0zm73.2 14.47c0 4.93-2.4 10.69-8.91 10.69h-4.01v1.74h4.01c3.97 0 7.1-1.87 8.91-5.08v28.73H59.26V41.87h-1.74v17.39h-4.49V41.87h-1.74v17.39H23.65V41.87h-1.74v17.39h-4.49V41.87h-1.74v17.39H1.74v-28.7c1.82 3.19 4.95 5.05 8.92 5.05h3.96v-1.74h-3.97c-6.5 0-8.91-5.48-8.91-10.61v-12.8h13.94V27.5h1.74V10.46h4.49V27.5h1.74V10.46h27.64V27.5h1.74V10.46h4.49V27.5h1.74V10.46H73.2v12.72zM28.53 1.74h17.88v4.17h1.75V0H26.79v5.91h1.74z"/></g><path d="M33.11 28.86h1.74v1.74h-1.74zm-3.49 0h1.74v1.74h-1.74zm13.96 0h1.74v1.74h-1.74zm-6.98 0h1.74v1.74H36.6zm3.49 0h1.74v1.74h-1.74zM23.4 27.01h-7.46c-1.18 0-2.13.96-2.13 2.13v11.82c0 1.18.96 2.13 2.13 2.13h7.46c1.17 0 2.13-.96 2.13-2.13V29.14c0-1.18-.96-2.13-2.13-2.13zm.38 13.94c0 .21-.17.38-.38.38h-2.86v-4.1H18.8v4.1h-2.86c-.21 0-.38-.16-.38-.38V29.13c0-.21.17-.38.38-.38v.01h7.46c.21 0 .38.17.38.38v11.81zM59 27.01h-7.46c-1.18 0-2.13.96-2.13 2.13v11.82c0 1.18.96 2.13 2.13 2.13H59c1.18 0 2.13-.96 2.13-2.13V29.14c0-1.18-.96-2.13-2.13-2.13zm.38 13.94c0 .21-.17.38-.38.38h-2.86v-4.1H54.4v4.1h-2.86a.38.38 0 01-.38-.38V29.13c0-.21.17-.38.38-.38v.01H59c.21 0 .38.17.38.38v11.81z" fill="#6da3e0"/></svg>