<svg xmlns="http://www.w3.org/2000/svg" viewBox="0 0 19.73 24"><path d="M5.2 9.88H4c0-3.22 2.63-5.84 5.86-5.84v1.2c-2.57 0-4.66 2.08-4.66 4.64zm7.4 1.22l-.04.21-.51.28-1.1-.6-1.09.6-1.09-.6-1.09.6-.51-.28-.04-.21-1.18.21 1.42 7.87 1.18-.21-1.1-6.14.23.13 1.09-.6 1.09.6 1.09-.6 1.1.6.23-.13-1.1 6.14 1.18.21 1.42-7.87z" fill="#6ec8a9"/><path d="M17.63 9.9c0-4.28-3.48-7.76-7.76-7.76S2.1 5.62 2.1 9.9c0 .04.08 3.64 2.99 7.38.21.28.36.73.45 1.29h-.33v1.2h.48v.91h-.48v1.2h9.32v-1.2H6.89v-.91h7.63v-1.2h-.34c.09-.56.25-1.01.45-1.29 2.92-3.74 3-7.34 3-7.38zM3.3 9.9c0-3.62 2.94-6.56 6.56-6.56 3.62 0 6.56 2.94 6.56 6.56 0 .03-.09 3.23-2.75 6.66-.35.46-.58 1.11-.7 1.93H6.74c-.11-.82-.35-1.47-.7-1.94C3.39 13.14 3.3 9.94 3.3 9.9zm3.47 12.9h6.2V24h-6.2z" fill="#282d33"/><path d="M9.26 0h1.2v1.42h-1.2zM6.726.49l1.16-.31.367 1.372-1.16.31zM4.417 1.623l1.04-.6.71 1.23-1.04.6zM2.463 3.314l.849-.849 1.004 1.004-.849.849zM1.027 5.45l.6-1.04 1.23.71-.6 1.04zm-.85 2.441l.31-1.159L1.86 7.1l-.31 1.159zM0 9.26h1.42v1.2H0zm.179 2.575l1.371-.367.31 1.159-1.37.367zm.846 2.439l1.23-.71.6 1.04-1.23.71zM2.46 16.41l1.005-1.004.848.848-1.005 1.004zm12.948-.144l.849-.848 1.004 1.004-.85.848zm1.465-1.662l.6-1.039 1.23.71-.6 1.04zm.986-1.971l.31-1.16 1.372.368-.31 1.16zm.451-3.373h1.42v1.2h-1.42zm-.451-2.165l1.371-.367.31 1.16-1.37.366zm-.982-1.97l1.23-.71.6 1.04-1.23.71zm-1.466-1.659l1.004-1.004.849.848-1.004 1.004zm-1.843-1.212l.71-1.23 1.04.6-.71 1.23zm-2.101-.699l.368-1.371 1.16.31-.369 1.372z" fill="#6ec8a9"/></svg>