<svg xmlns="http://www.w3.org/2000/svg" viewBox="0 0 65 65"><path d="M16.11 25.06c-.35.78-.65 1.59-.89 2.41l1.55.45c.22-.75.49-1.48.81-2.19l-1.47-.67zm16.33-10.55c-.86 0-1.72.07-2.56.19l.23 1.59c.77-.11 1.55-.17 2.33-.17v-1.61zm-8.83 4.23l-.88-1.35c-.72.46-1.4.98-2.05 1.54l1.06 1.21c.59-.5 1.21-.98 1.87-1.4zm-4.91 4.94c.42-.65.89-1.28 1.4-1.87l-1.22-1.05c-.56.65-1.07 1.34-1.53 2.06l1.35.86zm-2.42 6.52l-1.59-.22c-.12.83-.18 1.68-.17 2.54h.32l1.29-.03c-.01-.76.04-1.53.15-2.29zm.51 6.95c-.22-.74-.39-1.51-.5-2.28l-1.59.23c.12.85.31 1.69.55 2.51l1.54-.46zm11.05-20.36l-.46-1.54c-.82.24-1.63.55-2.4.9l.67 1.46c.71-.32 1.44-.6 2.19-.82zM50.3 29.87c-.12-.84-.31-1.69-.55-2.51l-1.54.46c.22.74.39 1.51.5 2.28l1.59-.23zM32.52 50.49c.86 0 1.72-.06 2.56-.18l-.23-1.59c-.77.11-1.55.17-2.33.17v1.6zm16.35-10.52c.35-.78.66-1.59.9-2.41l-1.55-.45c-.22.75-.49 1.48-.82 2.19l1.47.67zm1.62-7.47v-.07l-1.61.07c0 .78-.06 1.56-.16 2.33l1.59.23c.12-.85.18-1.71.18-2.56zm-1.65-7.54c-.36-.77-.77-1.53-1.24-2.25l-1.35.88c.42.65.8 1.34 1.13 2.04l1.46-.67zm-11.33-9.74c-.82-.24-1.67-.42-2.51-.53l-.22 1.59c.77.11 1.54.27 2.29.49l.44-1.55zM27.45 49.77c.82.24 1.66.42 2.51.54l.22-1.59c-.77-.11-1.54-.27-2.28-.49l-.45 1.54zm-4.66-2.12c.72.46 1.48.88 2.25 1.23l.67-1.47c-.7-.32-1.39-.7-2.05-1.12l-.87 1.36zm18.57-1.37l.87 1.35c.72-.46 1.41-.98 2.05-1.54l-1.06-1.22c-.57.51-1.2.99-1.86 1.41zm-4.23 1.94l.45 1.54c.82-.24 1.62-.54 2.4-.9l-.67-1.46c-.7.32-1.44.6-2.18.82zm9.16-6.87c-.42.65-.89 1.28-1.4 1.87l1.22 1.05c.56-.65 1.08-1.34 1.54-2.05l-1.36-.87zm-2.06-22.49l-1.05 1.22c.59.51 1.15 1.06 1.66 1.65l1.21-1.06c-.56-.64-1.17-1.25-1.82-1.81zm-4.31-2.75l-.67 1.47c.71.32 1.4.7 2.05 1.11l.87-1.36c-.71-.46-1.47-.87-2.25-1.22zM20.13 43.25l-1.22 1.06c.56.65 1.17 1.26 1.82 1.81l1.05-1.22c-.58-.51-1.13-1.07-1.65-1.65zm-3.99-3.24c.36.77.77 1.53 1.23 2.25l1.35-.87c-.42-.65-.8-1.34-1.12-2.04l-1.46.66zM32.09 3.08v7.42h1.61V3.08l3.58 3.58 1.14-1.14L32.89 0l-5.52 5.52 1.14 1.14zm-20.68 8.91l5.24 5.24 1.14-1.14-5.24-5.24h5.05V9.24H9.8l-.01 7.81h1.62zm-.91 20.92V31.3H3.08l3.58-3.58-1.14-1.14L0 32.1l5.52 5.53 1.14-1.14-3.58-3.58zm5.59 14.3l-5.24 5.24V47.4H9.24v7.8h7.81v-1.61h-5.06l5.24-5.24zm37.5 5.8l-5.24-5.24-1.14 1.14 5.24 5.24h-5.06v1.61h7.81v-7.81h-1.61zm5.89-25.64l-1.14 1.14 3.58 3.58H54.5v1.61h7.42l-3.58 3.58 1.14 1.14L65 32.89zM32.91 61.92V54.5H31.3v7.42l-3.58-3.58-1.14 1.14L32.1 65l5.53-5.52-1.14-1.14zm16-44.13l5.24-5.24v5.06l1.61-.01V9.8h-7.81v1.61h5.06l-5.24 5.24z" fill="#282d33"/><path d="M32.5 19.67c-7.08 0-12.84 5.76-12.84 12.83 0 7.08 5.76 12.83 12.84 12.83s12.83-5.76 12.83-12.83c0-7.08-5.75-12.83-12.83-12.83zm-6.59 21.9v-.88c0-1.89 1.53-3.42 3.42-3.42h6.34c1.89 0 3.42 1.53 3.42 3.42v.88a11.158 11.158 0 01-6.59 2.16c-2.46-.01-4.74-.81-6.59-2.16zm14.74-1.38c-.25-2.54-2.38-4.54-4.98-4.54h-1.08c1.73-.8 2.94-2.54 2.94-4.56a5.04 5.04 0 00-5.03-5.03 5.04 5.04 0 00-5.03 5.03c0 2.03 1.21 3.77 2.94 4.56h-1.08c-2.61 0-4.73 2-4.98 4.54-1.9-2.01-3.07-4.72-3.07-7.69 0-6.19 5.04-11.22 11.22-11.22 6.19 0 11.22 5.04 11.22 11.22 0 2.98-1.17 5.68-3.07 7.69zm-8.15-5.68c-1.89 0-3.42-1.53-3.42-3.42s1.53-3.42 3.42-3.42 3.42 1.53 3.42 3.42-1.54 3.42-3.42 3.42z" fill="#6da3e0"/></svg>