<svg xmlns="http://www.w3.org/2000/svg" viewBox="0 0 86 60.87"><path fill="#282d33" d="M74.19 54.61H15.08V39.76h2.03v12.82h55.06v-5.61h2.02zM17.11 28.6h-2.03V14.2h59.11v7.08h-2.02v-5.05H17.11zm37.48-23h-2.03V2.03H36.71V5.6h-2.02V0h19.9z"/><g fill="#6da3e0"><path d="M83.36 24.73H43.01c-1.45 0-2.64 1.18-2.64 2.64v.2H35.5v5.54H14.32l-4.66-3.79L0 31.45v5.33l9.66 2.13 4.66-3.79H35.5v5.54h4.87v.2c0 1.45 1.18 2.63 2.64 2.63h40.36c1.45 0 2.64-1.18 2.64-2.64V27.36a2.65 2.65 0 00-2.65-2.63zM12.3 34.16l-3.16 2.57-7.11-1.57v-2.08l7.11-1.57 3.16 2.57v.08zm25.22 4.49v-9.06h3.04v9.06h-3.04zm46.45 2.23c0 .34-.27.61-.61.61H43.01c-.34 0-.61-.27-.61-.61V27.37c0-.34.27-.61.61-.61h40.36c.34 0 .61.27.61.61v13.51z"/><path d="M45.95 35.95h34.46v2.03H45.95zm0-5.68h34.46v2.03H45.95z"/></g><path fill="#282d33" d="M78.02 46.97v11.88H11.25V42.19H9.22v18.68h70.83v-13.9zm0-25.69h2.03V7.94H9.22v18.23h2.03V9.97h66.77z"/></svg>