<svg xmlns="http://www.w3.org/2000/svg" viewBox="0 0 26.43 24"><path fill="#6ec8a9" d="M3.38 10.7h.95v13.02h-.95z"/><path d="M19.81 21.97h-6.52c-1.31 0-2.52-.57-3.35-1.57H8.2v-.95h2.21l.14.19c.65.88 1.65 1.38 2.74 1.38l8.07-.01c.71 0 1.29-.58 1.29-1.29 0-.71-.58-1.29-1.29-1.29v-.95h1.41c.71 0 1.29-.58 1.29-1.29 0-.71-.58-1.29-1.29-1.29v-.95h.47c.71 0 1.29-.58 1.29-1.29 0-.71-.58-1.29-1.29-1.29v-.95h.94c.71 0 1.29-.58 1.29-1.29 0-.71-.58-1.29-1.29-1.29h-4.95c-.08 0-.15.01-.22.02l-.08.01h-2.61l.78-2.74V2.69c0-.96-.78-1.74-1.74-1.74h-.35v3.07l-.95 1.33-3.25 3.56c-.42.44-.71.97-.85 1.55l-.09.36H8.2v-.95h.95c.2-.6.53-1.15.97-1.61l3.21-3.51.73-1.04V.01L15.37 0c1.48 0 2.69 1.21 2.69 2.69l-.02 2.62-.45 1.59h1.31c.11-.02.22-.03.34-.03h4.95c1.24 0 2.24 1.01 2.24 2.24 0 .96-.61 1.78-1.46 2.1.32.39.52.89.52 1.43 0 .83-.46 1.56-1.13 1.95.41.41.66.97.66 1.59 0 1.1-.8 2.02-1.85 2.21.27.37.44.83.44 1.33 0 1.24-1.01 2.24-2.24 2.24l-1.56.01zM7.01 24H0v-.95h6.06V10.1H0v-.95h7.01z" fill="#282d33"/></svg>