<svg xmlns="http://www.w3.org/2000/svg" viewBox="0 0 22.1 22"><path d="M3.81 22c-.44 0-.88-.08-1.31-.23l-.67-.24 2.35-2.34-.29-1.07-1.07-.29-2.35 2.34-.24-.67c-.51-1.39-.16-2.97.88-4.02a3.81 3.81 0 013.54-1.02l2.96-2.96.64.64-3.34 3.34-.25-.08a2.908 2.908 0 00-2.9.73 2.95 2.95 0 00-.84 2.32l1.63-1.63 2.08.56.56 2.08-1.63 1.63c.85.07 1.7-.22 2.32-.84.76-.76 1.04-1.87.73-2.9l-.08-.26 3.22-3.22.64.64-2.85 2.85a3.79 3.79 0 01-1.03 3.54c-.72.71-1.7 1.1-2.7 1.1zm9.81-10.73l-.64-.64 3.97-3.97.26.08c1.03.31 2.14.03 2.9-.73.61-.61.91-1.47.84-2.32l-1.63 1.63-2.08-.56-.56-2.08 1.63-1.63c-.85-.08-1.7.22-2.32.84-.76.76-1.04 1.87-.73 2.9l.08.26-3.88 3.88-.64-.64 3.51-3.5a3.79 3.79 0 011.03-3.54 3.83 3.83 0 014.02-.88l.67.24-2.35 2.35.29 1.07 1.07.29 2.35-2.35.24.67c.51 1.39.16 2.97-.88 4.02a3.84 3.84 0 01-3.54 1.03l-3.61 3.58z" fill="#282d33"/><path fill="#6ec8a9" d="M19.04 18.24L4.82 4.03l1.12-1.12-1.59-1.59L1.47 4.2l1.59 1.58 1.12-1.11L18.4 18.88z"/><path d="M22.1 21.95l-1.19-4.04-14.97-15 .32-.32L4.35.68l-.33.33L3.21.2a.703.703 0 00-.5-.2c-.22 0-.43.09-.59.25L.4 1.97c-.16.16-.25.37-.25.58 0 .19.07.37.2.5l.81.81-.33.34 1.91 1.9.32-.32 14.99 14.97 4.05 1.2zM1.12 2.53L2.69.96l.69.69-1.57 1.57-.69-.69zm3.23-.57l.63.63-2.24 2.23-.62-.62 2.23-2.24zm.95 1.59l14.18 14.18-1.59 1.59L3.71 5.14 5.3 3.55zm14.8 14.84l.65 2.22-2.22-.65 1.57-1.57z" fill="#282d33"/></svg>