<svg width="81" height="81" viewBox="0 0 81 81" fill="none" xmlns="http://www.w3.org/2000/svg"><g clip-path="url(#clip0)" stroke-width="2"><path d="M7.098 61.2c-9.6-15.2-7.8-35.5 5.4-48.7 15.3-15.3 40.1-15.3 55.5 0" stroke="#282D33"/><path d="M68.098.3v13.5h-13.5M73.9 19.3c9.6 15.2 7.8 35.5-5.4 48.7C53.2 83.3 28.3 83.3 13 68" stroke="#282D33"/><path d="M12.898 80.2V66.7h13.4" stroke="#282D33"/><path d="M65.498 35h-26.2c-2-4.6-6.6-7.7-11.9-7.7-7.2 0-13 5.8-13 13s5.8 13 13 13c5.5 0 10.2-3.4 12.1-8.2l.7.2 4.9-1.3 4.9 1.3 4.9-1.3 4.9 1.3 4.4-1.1 3.7-2.3v-3.7l-2.4-3.2zm-45.9 5.3h3.2" stroke="#649DDE"/></g><defs><clipPath id="clip0"><path fill="#fff" d="M0 0h81v80.5H0z"/></clipPath></defs></svg>