<svg width="68" height="79" viewBox="0 0 68 79" fill="none" xmlns="http://www.w3.org/2000/svg"><g clip-path="url(#clip0)" stroke-width="2"><path d="M51.4 27.4c0 7-5.7 12.7-12.7 12.7-7 0-12.7-5.7-12.7-12.7 0-7 5.7-12.7 12.7-12.7 7 0 12.7 5.7 12.7 12.7z" stroke="#282D33" stroke-linejoin="round"/><path d="M38.698 32.9V20.2l-4.3 4.5m1.302 8.1h5.9" stroke="#649DDE" stroke-linejoin="bevel"/><path d="M58.4 78.8V48.6c5-5.1 8.2-12 8.2-19.7C66.5 13.5 54.1 1 38.6 1 23.2 1 10.7 13.5 10.7 28.9v1.3L6.8 37l-5.1 8.9h6.5v11c0 4.2 3.4 7.5 7.5 7.5h11.9v14.4" stroke="#282D33"/><path d="M38.5 6.5v4.4M28.098 9.4l2.2 3.8m-9.7 3.9l3.8 2.2m-6.5 8.3h4.4M20.797 38l3.8-2.2m3.903 9.8l2.2-3.9m8.198 6.6v-4.5m10.5 1.6l-2.3-3.9m9.8-3.9l-3.8-2.2m6.502-8.2h-4.4m1.498-10.4l-3.8 2.2m-3.901-9.8l-2.2 3.8" stroke="#649DDE" stroke-linejoin="round"/></g><defs><clipPath id="clip0"><path fill="#fff" d="M0 0h67.5v78.8H0z"/></clipPath></defs></svg>