<?xml version="1.0" encoding="utf-8"?>
<!-- Generator: Adobe Illustrator 23.0.3, SVG Export Plug-In . SVG Version: 6.00 Build 0)  -->
<svg version="1.1" id="Layer_1" xmlns="http://www.w3.org/2000/svg" xmlns:xlink="http://www.w3.org/1999/xlink" x="0px" y="0px"
	 viewBox="0 0 80.98 72" style="enable-background:new 0 0 80.98 72;" xml:space="preserve">
<g>
	<g>
		<path style="fill:#E0E1E2;" d="M40.49,72C20.99,72,5.06,56.41,4.51,37.04H0l10.6-16.13l10.6,16.13h-4.47
			c0.55,12.63,10.99,22.74,23.76,22.74c8.82,0,16.87-4.85,21.02-12.65l1.84,0.98c-4.5,8.49-13.26,13.76-22.86,13.76
			c-14.26,0-25.87-11.6-25.87-25.87v-1.04h2.71L10.6,24.72L3.87,34.96h2.71V36c0,18.7,15.21,33.91,33.91,33.91
			c10.83,0,20.75-4.99,27.22-13.69l1.67,1.25C62.62,66.57,51.81,72,40.49,72z"/>
		<path style="fill:#E0E1E2;" d="M70.38,51.08l-10.6-16.13h4.47C63.7,22.33,53.25,12.22,40.49,12.22c-8.82,0-16.87,4.85-21.02,12.65
			l-1.84-0.98c4.5-8.49,13.26-13.76,22.86-13.76c14.26,0,25.87,11.6,25.87,25.87v1.04h-2.71l6.73,10.24l6.73-10.24H74.4V36
			c0-18.7-15.21-33.91-33.91-33.91c-10.83,0-20.75,4.99-27.22,13.69l-1.67-1.25C18.36,5.43,29.17,0,40.49,0
			c19.5,0,35.43,15.59,35.98,34.96h4.51L70.38,51.08z"/>
	</g>
	<g>
		<path style="fill:#7EBAEE;" d="M26.82,23.3V48.7h27.33V23.3H26.82z M52.07,25.39v5.68H28.91v-5.68H52.07z M52.07,33.16v5.68H28.91
			v-5.68H52.07z M28.91,46.61v-5.68h23.16v5.68H28.91z"/>
		<rect x="48.18" y="27.19" style="fill:#7EBAEE;" width="2.09" height="2.09"/>
		<rect x="48.18" y="34.96" style="fill:#7EBAEE;" width="2.09" height="2.09"/>
		<rect x="48.18" y="42.72" style="fill:#7EBAEE;" width="2.09" height="2.09"/>
	</g>
</g>
</svg>
