<?xml version="1.0" encoding="utf-8"?>
<!-- Generator: Adobe Illustrator 23.0.3, SVG Export Plug-In . SVG Version: 6.00 Build 0)  -->
<svg version="1.1" id="Layer_1" xmlns="http://www.w3.org/2000/svg" xmlns:xlink="http://www.w3.org/1999/xlink" x="0px" y="0px"
	 viewBox="0 0 96 72" style="enable-background:new 0 0 96 72;" xml:space="preserve">
<g>
	<path style="fill:#E0E1E2;" d="M69.86,48.87h-8.49l-0.52-6.24c-1.69-0.48-3.29-1.19-4.78-2.11l-4.61,3.9l-6-6l4.04-4.78
		c-0.85-1.53-1.49-3.16-1.89-4.87l-6.02-0.5v-8.49l6.24-0.52c0.48-1.69,1.19-3.29,2.11-4.78l-3.9-4.61l6-6l4.78,4.04
		c1.53-0.85,3.16-1.49,4.87-1.89L62.19,0h8.49l0.52,6.24c1.69,0.48,3.29,1.19,4.78,2.11l4.61-3.9l6,6l-4.04,4.77
		c0.85,1.53,1.49,3.17,1.89,4.88l6.02,0.5v8.49l-6.24,0.52c-0.48,1.69-1.19,3.29-2.11,4.78l3.9,4.61l-6,6l-4.78-4.04
		c-1.53,0.85-3.16,1.49-4.87,1.89L69.86,48.87z M63.3,46.78h4.64l0.47-5.67l0.78-0.15c2-0.38,3.88-1.11,5.61-2.17l0.64-0.39
		l4.45,3.76l3.28-3.28l-3.67-4.34l0.45-0.66c1.14-1.68,1.96-3.53,2.43-5.5l0.18-0.73l5.81-0.48v-4.64l-5.67-0.47l-0.15-0.78
		c-0.38-2-1.11-3.89-2.17-5.61L80,15.01l3.76-4.45l-3.28-3.28l-4.34,3.67l-0.66-0.45c-1.68-1.14-3.53-1.96-5.5-2.43L69.25,7.9
		l-0.48-5.81h-4.64l-0.47,5.67l-0.78,0.15c-2,0.38-3.88,1.11-5.61,2.17l-0.64,0.4L52.16,6.7l-3.28,3.28l3.67,4.34l-0.45,0.66
		c-1.14,1.67-1.96,3.52-2.43,5.5l-0.18,0.73l-5.81,0.49v4.64l5.67,0.47l0.15,0.78c0.38,2,1.11,3.88,2.16,5.61l0.39,0.64L48.3,38.3
		l3.28,3.28l4.34-3.67l0.66,0.45c1.68,1.14,3.53,1.96,5.5,2.43l0.73,0.18L63.3,46.78z"/>
	<path style="fill:#7EBAEE;" d="M66.03,35.17c-5.92,0-10.74-4.82-10.74-10.74S60.11,13.7,66.03,13.7c5.92,0,10.74,4.82,10.74,10.74
		S71.95,35.17,66.03,35.17z M66.03,15.79c-4.77,0-8.65,3.88-8.65,8.65s3.88,8.65,8.65,8.65c4.77,0,8.65-3.88,8.65-8.65
		S70.8,15.79,66.03,15.79z"/>
	<path style="fill:#E0E1E2;" d="M50.77,50.05c-0.58-0.31-1.15-0.64-1.71-0.99c-0.25,0.29-0.51,0.58-0.76,0.88
		c-4.85,5.63-9.87,11.46-15.66,15.58c-6.95,4.95-14.21,5.87-20.45,2.62c-6-3.13-10.3-9.81-10.24-15.87
		c0.06-5.33,1.93-9.93,5.42-13.3c3.7-3.57,9.11-5.63,14.46-5.48c5.19,0.14,10.01,3.24,13.76,6.63l-4.35-0.95l-0.41,1.9l9.3,2.02
		l-2.8-9.12l-1.86,0.57l1.19,3.9c-3.98-3.54-9.12-6.74-14.79-6.89c-5.86-0.16-11.79,2.1-15.86,6.02C2.14,41.3,0.06,46.37,0,52.24
		C-0.07,59,4.68,66.4,11.29,69.86c2.75,1.43,5.66,2.14,8.64,2.14c4.55,0,9.27-1.65,13.84-4.9c5.98-4.26,11.08-10.17,16.01-15.89
		C50.11,50.82,50.44,50.43,50.77,50.05z"/>
	<path style="fill:#E0E1E2;" d="M91.59,38.13c-0.33,0.61-0.68,1.2-1.05,1.78c2.27,3.07,3.49,7.19,3.51,12.23
		c0.04,7.49-4.54,14.11-11.39,16.46c-8.64,2.97-18.58-1.2-26.89-11.16l4.43,1.24l0.52-1.87l-9.4-2.64l2.32,9.55l1.89-0.46
		l-1.05-4.33c8.81,10.43,19.45,14.73,28.81,11.51c7.64-2.63,12.75-9.99,12.71-18.31C95.97,46.33,94.42,41.59,91.59,38.13z"/>
</g>
<g>
	<path style="fill:#E0E1E2;" d="M69.86,48.87h-8.49l-0.52-6.24c-1.69-0.48-3.29-1.19-4.78-2.11l-4.61,3.9l-6-6l4.04-4.78
		c-0.85-1.53-1.49-3.16-1.89-4.87l-6.02-0.5v-8.49l6.24-0.52c0.48-1.69,1.19-3.29,2.11-4.78l-3.9-4.61l6-6l4.78,4.04
		c1.53-0.85,3.16-1.49,4.87-1.89L62.19,0h8.49l0.52,6.24c1.69,0.48,3.29,1.19,4.78,2.11l4.61-3.9l6,6l-4.04,4.77
		c0.85,1.53,1.49,3.17,1.89,4.88l6.02,0.5v8.49l-6.24,0.52c-0.48,1.69-1.19,3.29-2.11,4.78l3.9,4.61l-6,6l-4.78-4.04
		c-1.53,0.85-3.16,1.49-4.87,1.89L69.86,48.87z M63.3,46.78h4.64l0.47-5.67l0.78-0.15c2-0.38,3.88-1.11,5.61-2.17l0.64-0.39
		l4.45,3.76l3.28-3.28l-3.67-4.34l0.45-0.66c1.14-1.68,1.96-3.53,2.43-5.5l0.18-0.73l5.81-0.48v-4.64l-5.67-0.47l-0.15-0.78
		c-0.38-2-1.11-3.89-2.17-5.61L80,15.01l3.76-4.45l-3.28-3.28l-4.34,3.67l-0.66-0.45c-1.68-1.14-3.53-1.96-5.5-2.43L69.25,7.9
		l-0.48-5.81h-4.64l-0.47,5.67l-0.78,0.15c-2,0.38-3.88,1.11-5.61,2.17l-0.64,0.4L52.16,6.7l-3.28,3.28l3.67,4.34l-0.45,0.66
		c-1.14,1.67-1.96,3.52-2.43,5.5l-0.18,0.73l-5.81,0.49v4.64l5.67,0.47l0.15,0.78c0.38,2,1.11,3.88,2.16,5.61l0.39,0.64L48.3,38.3
		l3.28,3.28l4.34-3.67l0.66,0.45c1.68,1.14,3.53,1.96,5.5,2.43l0.73,0.18L63.3,46.78z"/>
	<path style="fill:#7EBAEE;" d="M66.03,35.17c-5.92,0-10.74-4.82-10.74-10.74S60.11,13.7,66.03,13.7c5.92,0,10.74,4.82,10.74,10.74
		S71.95,35.17,66.03,35.17z M66.03,15.79c-4.77,0-8.65,3.88-8.65,8.65s3.88,8.65,8.65,8.65c4.77,0,8.65-3.88,8.65-8.65
		S70.8,15.79,66.03,15.79z"/>
	<path style="fill:#E0E1E2;" d="M50.77,50.05c-0.58-0.31-1.15-0.64-1.71-0.99c-0.25,0.29-0.51,0.58-0.76,0.88
		c-4.85,5.63-9.87,11.46-15.66,15.58c-6.95,4.95-14.21,5.87-20.45,2.62c-6-3.13-10.3-9.81-10.24-15.87
		c0.06-5.33,1.93-9.93,5.42-13.3c3.7-3.57,9.11-5.63,14.46-5.48c5.19,0.14,10.01,3.24,13.76,6.63l-4.35-0.95l-0.41,1.9l9.3,2.02
		l-2.8-9.12l-1.86,0.57l1.19,3.9c-3.98-3.54-9.12-6.74-14.79-6.89c-5.86-0.16-11.79,2.1-15.86,6.02C2.14,41.3,0.06,46.37,0,52.24
		C-0.07,59,4.68,66.4,11.29,69.86c2.75,1.43,5.66,2.14,8.64,2.14c4.55,0,9.27-1.65,13.84-4.9c5.98-4.26,11.08-10.17,16.01-15.89
		C50.11,50.82,50.44,50.43,50.77,50.05z"/>
	<path style="fill:#E0E1E2;" d="M91.59,38.13c-0.33,0.61-0.68,1.2-1.05,1.78c2.27,3.07,3.49,7.19,3.51,12.23
		c0.04,7.49-4.54,14.11-11.39,16.46c-8.64,2.97-18.58-1.2-26.89-11.16l4.43,1.24l0.52-1.87l-9.4-2.64l2.32,9.55l1.89-0.46
		l-1.05-4.33c8.81,10.43,19.45,14.73,28.81,11.51c7.64-2.63,12.75-9.99,12.71-18.31C95.97,46.33,94.42,41.59,91.59,38.13z"/>
</g>
</svg>
