<?xml version="1.0" encoding="utf-8"?>
<!-- Generator: Adobe Illustrator 23.0.3, SVG Export Plug-In . SVG Version: 6.00 Build 0)  -->
<svg version="1.1" id="Layer_1" xmlns="http://www.w3.org/2000/svg" xmlns:xlink="http://www.w3.org/1999/xlink" x="0px" y="0px"
	 viewBox="0 0 86 72" style="enable-background:new 0 0 86 72;" xml:space="preserve">
<g>
	<g>
		<rect x="27.82" y="39.98" style="fill:#E0E1E2;" width="30.36" height="2.06"/>
		<path style="fill:#E0E1E2;" d="M0,10.29l0,17.16c0,0.01,0,0.02,0,0.03V72h86V27.36V10.29H0z M73.5,42.04
			c4.67,0,8.32-2.19,10.44-5.94v33.85H68.72V54.17h-2.06v15.77h-5.29V54.17h-2.06v15.77H26.69V54.17h-2.06v15.77h-5.29V54.17h-2.06
			v15.77H2.06V36.13c2.12,3.73,5.77,5.9,10.44,5.9h3.47v-2.06H12.5c-7.7,0-10.44-6.47-10.44-12.53c0-3.78,0-15.11,0-15.11h15.22
			v20.12h2.06V12.34h5.29v20.12h2.06V12.34h32.61v20.12h2.06V12.34h5.29v20.12h2.06V12.34h15.22c0,0,0,11.26,0,15.02
			c0,5.82-2.73,12.62-10.44,12.62h-3.51v2.06H73.5z"/>
		<polygon style="fill:#E0E1E2;" points="32.45,2.06 53.55,2.06 53.55,6.97 55.61,6.97 55.61,0 30.39,0 30.39,6.97 32.45,6.97 		"/>
	</g>
	<g>
		<path style="fill:#7EBAEE;" d="M52.27,36.12h-2.06v-2.06h2.06V36.12z M48.15,36.12h-2.06v-2.06h2.06V36.12z M44.03,36.12h-2.06
			v-2.06h2.06V36.12z M39.91,36.12h-2.06v-2.06h2.06V36.12z M35.79,36.12h-2.06v-2.06h2.06V36.12z"/>
		<g>
			<path style="fill:#7EBAEE;" d="M28.9,31.88H15.07v18.98H28.9V31.88z M26.84,33.94V48.8h-3.82v-4.85h-2.06v4.85h-3.83V33.94H26.84
				z"/>
			<path style="fill:#7EBAEE;" d="M70.93,31.88H57.1v18.98h13.83V31.88z M68.87,33.94V48.8h-3.82v-4.85h-2.06v4.85h-3.83V33.94
				H68.87z"/>
		</g>
	</g>
</g>
</svg>
