<?xml version="1.0" encoding="utf-8"?>
<!-- Generator: Adobe Illustrator 23.0.3, SVG Export Plug-In . SVG Version: 6.00 Build 0)  -->
<svg version="1.1" id="Layer_1" xmlns="http://www.w3.org/2000/svg" xmlns:xlink="http://www.w3.org/1999/xlink" x="0px" y="0px"
	 viewBox="0 0 85.91 72" style="enable-background:new 0 0 85.91 72;" xml:space="preserve">
<g>
	<g>
		<polygon style="fill:#7EBAEE;" points="36.4,30.59 28.44,24.28 36.4,17.96 37.67,19.56 31.72,24.28 37.67,28.99 		"/>
		<polygon style="fill:#7EBAEE;" points="49.51,30.59 48.24,28.99 54.19,24.28 48.24,19.56 49.51,17.96 57.47,24.28 		"/>
		
			<rect x="34.21" y="23.26" transform="matrix(0.2798 -0.9601 0.9601 0.2798 7.7941 58.9406)" style="fill:#7EBAEE;" width="17.94" height="2.04"/>
	</g>
	<g>
		<rect x="19.4" y="3.69" style="fill:#7EBAEE;" width="1.98" height="1.98"/>
		<rect x="22.83" y="3.69" style="fill:#7EBAEE;" width="1.99" height="1.98"/>
		<rect x="26.27" y="3.69" style="fill:#7EBAEE;" width="1.99" height="1.98"/>
		<path style="fill:#E0E1E2;" d="M85.44,34.5l-12.52-8.89l10.38-6.68c0.35-0.23,0.55-0.63,0.51-1.04c-0.03-0.41-0.29-0.78-0.67-0.94
			l-12.91-5.63V8.23v-1v-6.1C70.22,0.51,69.72,0,69.1,0H16.82c-0.62,0-1.13,0.51-1.13,1.13v6.1v1v3.08L2.77,16.95
			c-0.38,0.17-0.64,0.53-0.67,0.94c-0.03,0.41,0.16,0.81,0.51,1.04L13,25.61L0.48,34.5C0.15,34.73-0.03,35.11,0,35.5
			c0.03,0.39,0.26,0.74,0.62,0.92l13.26,6.67v14.18c0,0.43,0.25,0.83,0.63,1.01l27.95,13.6c0.04,0.02,0.08,0.03,0.12,0.04
			c0.03,0.01,0.06,0.02,0.09,0.03c0.09,0.02,0.19,0.04,0.28,0.04c0.1,0,0.19-0.02,0.28-0.04c0.03-0.01,0.06-0.02,0.09-0.03
			c0.04-0.01,0.08-0.02,0.12-0.04l27.95-13.6c0.39-0.19,0.63-0.58,0.63-1.01V43.09l13.26-6.67c0.35-0.18,0.59-0.53,0.62-0.92
			C85.94,35.11,85.76,34.73,85.44,34.5z M67.97,25.66L42.96,37.03l-0.23-0.1L17.95,25.66V9.36h50.02V25.66z M80.31,18.17l-9.5,6.11
			l-0.59-0.27V13.77L80.31,18.17z M17.95,2.26h50.02V7.1H17.95V2.26z M15.69,13.77v10.24l-0.59,0.27l-9.5-6.11L15.69,13.77z
			 M15.13,26.86l9.6,4.36l16,7.27L28.07,47.7L3.31,35.25L15.13,26.86z M16.14,44.23l11.53,5.8c0.16,0.08,0.33,0.12,0.51,0.12
			c0.23,0,0.47-0.07,0.66-0.22l12.99-9.45v28.59l-25.69-12.5V44.23z M69.77,56.57l-25.69,12.5V40.48l12.99,9.45
			c0.2,0.14,0.43,0.22,0.66,0.22c0.17,0,0.35-0.04,0.51-0.12l11.53-5.8V56.57z M57.85,47.7l-12.66-9.21l25.59-11.63l11.82,8.39
			L57.85,47.7z"/>
	</g>
</g>
</svg>
