<?xml version="1.0" encoding="utf-8"?>
<!-- Generator: Adobe Illustrator 23.0.3, SVG Export Plug-In . SVG Version: 6.00 Build 0)  -->
<svg version="1.1" id="Layer_1" xmlns="http://www.w3.org/2000/svg" xmlns:xlink="http://www.w3.org/1999/xlink" x="0px" y="0px"
	 viewBox="0 0 72 72" style="enable-background:new 0 0 72 72;" xml:space="preserve">
<g>
	<path style="fill:#E0E1E2;" d="M72,72V60.64h-4.61V11.36H72V0H60.64v4.61H11.36V0H0v11.36h4.61v49.27H0V72h11.36v-4.61h49.27V72H72
		z M69.85,62.79v7.06h-7.06v-7.06H69.85z M62.79,2.15h7.06v7.06h-7.06V2.15z M2.15,9.21V2.15h7.06v7.06H2.15z M9.21,69.85H2.15
		v-7.06h7.06V69.85z M11.36,65.24v-4.61H6.76V11.36h4.61V6.76h49.27v4.61h4.61v49.27h-4.61v4.61H11.36z"/>
	<path style="fill:#7EBAEE;" d="M15.35,15.28V37h41.3V15.28H15.35z M51.01,17.43l-0.28,0.14L36,24.94l-15.01-7.5H51.01z M17.5,18.1
		l16.09,8.04l-0.13,0.07L17.5,34.18V18.1z M20.99,34.85l0.28-0.14L36,27.34l15.01,7.5H20.99z M54.5,34.18l-16.09-8.04l0.13-0.07
		L54.5,18.1V34.18z"/>
	<rect x="15.35" y="39.82" style="fill:#E0E1E2;" width="41.3" height="2.15"/>
	<g>
		<rect x="15.35" y="44.63" style="fill:#E0E1E2;" width="19.32" height="2.3"/>
		<rect x="37.33" y="44.63" style="fill:#E0E1E2;" width="19.32" height="2.3"/>
	</g>
	<g>
		<rect x="15.35" y="49.53" style="fill:#E0E1E2;" width="19.32" height="2.3"/>
		<rect x="37.33" y="49.53" style="fill:#E0E1E2;" width="19.32" height="2.3"/>
	</g>
	<g>
		<rect x="15.35" y="54.42" style="fill:#E0E1E2;" width="19.32" height="2.3"/>
		<rect x="37.33" y="54.42" style="fill:#E0E1E2;" width="19.32" height="2.3"/>
	</g>
</g>
</svg>
