<?xml version="1.0" encoding="utf-8"?>
<!-- Generator: Adobe Illustrator 23.0.3, SVG Export Plug-In . SVG Version: 6.00 Build 0)  -->
<svg version="1.1" id="Layer_1" xmlns="http://www.w3.org/2000/svg" xmlns:xlink="http://www.w3.org/1999/xlink" x="0px" y="0px"
	 viewBox="0 0 80 72" style="enable-background:new 0 0 80 72;" xml:space="preserve">
<g>
	<path style="fill:#E0E1E2;" d="M74.28,12.81h-8.55v2.12h8.55c1.92,0,3.6,1.68,3.6,3.6V55.9H2.12V19.7c0-1.92,1.68-3.6,3.6-3.6h8.55
		v-2.12H5.72C2.67,13.98,0,16.65,0,19.7v40.01c0,2.93,2.57,5.31,5.72,5.31H23.8v4.87h-4.66V72h41.72v-2.12H56.2v-4.87h18.08
		c3.15,0,5.72-2.38,5.72-5.31V18.53C80,15.48,77.33,12.81,74.28,12.81z M54.08,69.88H25.92v-4.87h28.16V69.88z M74.28,62.89H5.72
		c-1.81,0-3.67-1.19-3.67-3.18l0.08-1.68h75.75l0,0.1l0.08,1.58C77.95,61.7,76.09,62.89,74.28,62.89z"/>
	<path style="fill:#7EBAEE;" d="M40,41.49c8.64,0,15.68-7.03,15.68-15.68S48.64,10.14,40,10.14s-15.67,7.03-15.67,15.68
		S31.36,41.49,40,41.49z M40,12.19c7.51,0,13.63,6.11,13.63,13.63c0,7.51-6.11,13.63-13.63,13.63s-13.63-6.11-13.63-13.63
		C26.37,18.3,32.48,12.19,40,12.19z"/>
	<path style="fill:#E0E1E2;" d="M14.18,30l3.98,1l0.01,0.06c0.54,2.27,1.45,4.45,2.69,6.48l0.03,0.05l-0.03,0.05l-2.09,3.48
		l2.96,2.96l0,0l2.96,2.96l3.53-2.12l0.05,0.03c2.03,1.24,4.21,2.15,6.48,2.69l0.06,0.01l1,3.98h8.36l1-3.98l0.06-0.01
		c2.27-0.54,4.45-1.45,6.48-2.69l0.05-0.03l0.05,0.03l3.48,2.09l2.96-2.96l0,0l2.96-2.96l-2.12-3.53l0.03-0.05
		c1.24-2.03,2.15-4.21,2.69-6.48l0.01-0.06l3.98-1v-8.36l-3.98-1l-0.01-0.06c-0.54-2.27-1.45-4.45-2.69-6.48l-0.03-0.05l0.03-0.05
		l2.09-3.48l-2.96-2.96l0,0L55.3,4.61l-3.53,2.12l-0.05-0.03C49.69,5.45,47.51,4.54,45.24,4l-0.06-0.01l-1-3.98h-8.36l-1,3.98
		L34.76,4c-2.27,0.54-4.45,1.45-6.48,2.69l-0.05,0.03l-0.05-0.03L24.7,4.61l-2.96,2.96l0,0l-2.96,2.96l2.12,3.53l-0.03,0.05
		c-1.24,2.03-2.15,4.21-2.69,6.48l-0.01,0.06l-3.98,1V30z M16.23,23.24l0.08-0.02l3.59-0.9l0.13-0.63c0.52-2.51,1.5-4.88,2.94-7.06
		l0.35-0.54l-1.95-3.26l0.06-0.06l1.77-1.77l1.82-1.82l3.26,1.95l0.54-0.35c2.17-1.43,4.55-2.42,7.06-2.94l0.63-0.13l0.92-3.67h5.16
		l0.02,0.08l0.9,3.59l0.63,0.13c2.51,0.52,4.88,1.5,7.06,2.94l0.54,0.35l3.26-1.95l0.06,0.06l1.77,1.77l1.82,1.82l-1.95,3.26
		l0.35,0.54c1.43,2.17,2.42,4.55,2.94,7.06l0.13,0.63l3.67,0.92v5.16l-0.08,0.02l-3.59,0.9l-0.13,0.63
		c-0.52,2.51-1.5,4.88-2.94,7.06l-0.35,0.54l1.95,3.26l-0.06,0.06l-1.77,1.77l-1.82,1.82l-3.26-1.95l-0.54,0.35
		c-2.17,1.43-4.55,2.42-7.06,2.94l-0.63,0.13l-0.92,3.67h-5.16l-0.02-0.08l-0.9-3.59l-0.63-0.13c-2.51-0.52-4.88-1.5-7.06-2.94
		l-0.54-0.35l-3.26,1.95l-0.06-0.06l-1.77-1.77l-1.82-1.82l1.95-3.26l-0.35-0.54c-1.43-2.17-2.42-4.55-2.94-7.06l-0.13-0.63
		l-3.67-0.92V23.24z"/>
	<g>
		<polygon style="fill:#7EBAEE;" points="34.97,30.72 28.78,25.82 34.97,20.91 36.3,22.59 32.24,25.82 36.3,29.04 		"/>
		<polygon style="fill:#7EBAEE;" points="45.03,30.72 43.7,29.04 47.76,25.82 43.7,22.59 45.03,20.91 51.22,25.82 		"/>
		
			<rect x="33.55" y="24.74" transform="matrix(0.2798 -0.9601 0.9601 0.2798 4.1437 57.1552)" style="fill:#7EBAEE;" width="13.23" height="2.15"/>
	</g>
</g>
</svg>
