<svg width="1920" height="553" viewBox="0 0 1920 553" fill="none" xmlns="http://www.w3.org/2000/svg">
  <mask id="a" maskUnits="userSpaceOnUse" x="0" y="0" width="1920" height="553">
    <path fill="url(#paint0_linear)" d="M0 0h1920v553H0z"/>
  </mask>
  <g mask="url(#a)">
    <path d="M798.631 219.665h21.01c16.776 0 22.603 3.681 24.583 5.875 3.285 3.642 3.905 11.322 1.794 22.209-2.372 12.187-6.77 20.828-13.072 25.681-6.453 4.967-16.943 7.485-31.177 7.485h-15.042l11.904-61.25zm36.038-43.75h-76.318a7.5 7.5 0 0 0-7.362 6.069l-35.41 182.188a7.504 7.504 0 0 0 1.574 6.202 7.502 7.502 0 0 0 5.788 2.728h39.687a7.5 7.5 0 0 0 7.363-6.068l8.235-42.369h27.811c15.727 0 28.967-1.715 39.349-5.096 10.676-3.469 20.498-9.35 29.192-17.48 7.19-6.615 13.113-14.04 17.6-22.072 4.489-8.033 7.714-16.992 9.585-26.627 4.644-23.88.871-43.003-11.211-56.833-11.965-13.697-30.768-20.642-55.883-20.642zm-57.041 112.5h24.141c16.002 0 27.92-3.014 35.752-9.043 7.832-6.03 13.115-16.093 15.86-30.196 2.626-13.54 1.43-23.095-3.589-28.661-5.025-5.566-15.074-8.35-30.151-8.35h-27.193l-14.82 76.25zm57.041-105c22.959 0 39.708 6.025 50.235 18.076 10.527 12.051 13.697 28.873 9.497 50.469-1.729 8.896-4.653 17.03-8.769 24.399-4.121 7.373-9.503 14.116-16.153 20.23-7.925 7.416-16.728 12.701-26.416 15.848-9.687 3.157-22.026 4.728-37.026 4.728h-33.995l-9.414 48.437h-39.687l35.41-182.187h76.318z" fill="#6EB5BD" fill-opacity=".06"/>
    <path d="M966.676 127.477h-39.375a7.5 7.5 0 0 0-7.362 6.069l-35.41 182.189a7.496 7.496 0 0 0 7.362 8.93h39.375a7.502 7.502 0 0 0 7.363-6.069l19.103-98.306h25.287c11.703 0 14.16 2.5 14.258 2.607.71.764 1.644 4.302.103 12.227l-15.664 80.611a7.5 7.5 0 0 0 7.363 8.93h40.001c3.59 0 6.68-2.545 7.36-6.069l16.47-84.781c3.87-19.901.56-34.83-9.82-44.375-9.91-9.101-26.51-13.525-50.75-13.525h-25.98l7.679-39.506a7.504 7.504 0 0 0-7.363-8.932zm0 7.5l-9.414 48.438h35.078c22.07 0 37.29 3.852 45.67 11.547 8.38 7.7 10.89 20.177 7.54 37.423l-16.47 84.78h-40.001l15.661-80.61c1.78-9.17 1.13-15.425-1.97-18.76-3.091-3.335-9.678-5.005-19.751-5.005h-31.47l-20.283 104.375h-39.375l35.41-182.188h39.375z" fill="#6EB5BD" fill-opacity=".06"/>
    <path d="M1108.4 219.665h21.01c16.78 0 22.6 3.681 24.58 5.875 3.29 3.642 3.91 11.322 1.8 22.207-2.38 12.189-6.77 20.83-13.08 25.683-6.45 4.967-16.94 7.485-31.17 7.485h-15.04l11.9-61.25zm36.04-43.75h-76.32a7.494 7.494 0 0 0-7.36 6.069l-35.41 182.188a7.506 7.506 0 0 0 1.57 6.202 7.513 7.513 0 0 0 5.79 2.728h39.69c3.59 0 6.68-2.545 7.36-6.068l8.23-42.369h27.82c15.72 0 28.96-1.715 39.34-5.096 10.68-3.469 20.51-9.352 29.2-17.483 7.19-6.614 13.11-14.037 17.6-22.069 4.49-8.033 7.71-16.992 9.58-26.627 4.65-23.881.87-43.004-11.21-56.834-11.96-13.696-30.77-20.641-55.88-20.641zm-57.04 112.5h24.14c16 0 27.92-3.014 35.75-9.043 7.83-6.03 13.11-16.093 15.86-30.196 2.63-13.54 1.43-23.095-3.59-28.661-5.02-5.566-15.07-8.35-30.15-8.35h-27.19l-14.82 76.25zm57.04-105c22.96 0 39.71 6.025 50.23 18.076 10.53 12.051 13.7 28.873 9.5 50.469-1.73 8.896-4.65 17.03-8.77 24.399-4.12 7.373-9.5 14.116-16.15 20.23-7.93 7.416-16.73 12.701-26.42 15.848-9.69 3.157-22.02 4.728-37.02 4.728h-34l-9.41 48.437h-39.69l35.41-182.187h76.32z" fill="#6EB5BD" fill-opacity=".06"/>
    <path fill-rule="evenodd" clip-rule="evenodd" d="M801.77 288.415h-24.141l14.82-76.25h27.192c15.078 0 25.127 2.784 30.152 8.35 5.018 5.566 6.215 15.121 3.588 28.661-2.745 14.103-8.027 24.166-15.86 30.196-7.831 6.029-19.75 9.043-35.751 9.043zm83.135-86.924c-10.527-12.051-27.276-18.076-50.235-18.076h-76.319l-35.41 182.187h39.688l9.414-48.437h33.995c15 0 27.338-1.571 37.026-4.728 9.687-3.147 18.491-8.432 26.416-15.848 6.65-6.114 12.031-12.857 16.153-20.23 4.116-7.369 7.04-15.503 8.768-24.399 4.2-21.596 1.03-38.418-9.496-50.469zM957.262 183.415l9.414-48.438h-39.375l-35.41 182.188h39.375l20.282-104.375h31.47c10.074 0 16.66 1.67 19.752 5.005 3.1 3.335 3.75 9.59 1.97 18.76l-15.662 80.61h40.002l16.47-84.78c3.35-17.246.84-29.723-7.54-37.423-8.38-7.695-23.6-11.547-45.671-11.547h-35.077zM1111.54 288.415h-24.14l14.82-76.25h27.19c15.08 0 25.13 2.784 30.15 8.35s6.22 15.121 3.59 28.661c-2.75 14.103-8.03 24.166-15.86 30.196-7.83 6.029-19.75 9.043-35.75 9.043zm83.13-86.924c-10.52-12.051-27.27-18.076-50.23-18.076h-76.32l-35.41 182.187h39.69l9.41-48.437h34c15 0 27.33-1.571 37.02-4.728 9.69-3.147 18.49-8.432 26.42-15.848 6.65-6.114 12.03-12.857 16.15-20.23 4.12-7.369 7.04-15.503 8.77-24.399 4.2-21.596 1.03-38.418-9.5-50.469z" fill="#1B3154" fill-opacity=".2"/>
    <path fill-rule="evenodd" clip-rule="evenodd" d="M959.6 445.597c-190.866 0-345.6-81.395-345.6-181.798s154.734-181.8 345.6-181.8c190.87 0 345.6 81.397 345.6 181.8s-154.73 181.798-345.6 181.798zM819.641 219.665h-21.01l-11.904 61.25h15.042c14.234 0 24.724-2.518 31.177-7.485 6.302-4.853 10.7-13.494 13.072-25.681 2.111-10.887 1.491-18.567-1.794-22.209-1.98-2.194-7.807-5.875-24.583-5.875zm-61.29-43.75h76.318c25.115 0 43.918 6.945 55.883 20.642 6.302 7.214 10.343 15.868 12.109 25.885l17.278-88.896a7.5 7.5 0 0 1 7.362-6.069h39.375a7.503 7.503 0 0 1 7.363 8.932l-7.679 39.506h25.98c24.24 0 40.84 4.424 50.75 13.525 6.79 6.238 10.55 14.775 11.26 25.497l6.41-32.953a7.494 7.494 0 0 1 7.36-6.069h76.32c25.11 0 43.92 6.945 55.88 20.641 12.08 13.83 15.86 32.953 11.21 56.834-1.87 9.635-5.09 18.594-9.58 26.627-4.49 8.032-10.41 15.455-17.6 22.069-8.69 8.131-18.52 14.014-29.2 17.483-10.38 3.381-23.62 5.096-39.34 5.096h-27.82l-8.23 42.369a7.494 7.494 0 0 1-7.36 6.068h-39.69c-2.24 0-4.36-1-5.79-2.728a7.506 7.506 0 0 1-1.57-6.202l7.93-40.793a7.498 7.498 0 0 1-4.2 1.286h-40.001a7.5 7.5 0 0 1-7.363-8.93l15.664-80.611c1.541-7.925.607-11.463-.103-12.227-.098-.107-2.555-2.607-14.258-2.607h-25.287l-19.103 98.306a7.502 7.502 0 0 1-7.363 6.069h-39.375a7.497 7.497 0 0 1-7.362-8.93l6.581-33.864c-4.344 7.322-9.898 14.115-16.532 20.218-8.694 8.13-18.516 14.011-29.192 17.48-10.382 3.381-23.622 5.096-39.349 5.096h-27.811l-8.235 42.369a7.5 7.5 0 0 1-7.363 6.068h-39.687c-2.24 0-4.363-1-5.788-2.728a7.504 7.504 0 0 1-1.574-6.202l35.41-182.188a7.5 7.5 0 0 1 7.362-6.069zm43.418 112.5h-24.141l14.82-76.25h27.193c15.077 0 25.126 2.784 30.151 8.35 5.019 5.566 6.215 15.121 3.589 28.661-2.745 14.103-8.028 24.166-15.86 30.196-7.832 6.029-19.75 9.043-35.752 9.043zm83.135-86.924c-10.527-12.051-27.276-18.076-50.235-18.076h-76.318l-35.41 182.187h39.687l9.414-48.437h33.995c15 0 27.339-1.571 37.026-4.728 9.688-3.147 18.491-8.432 26.416-15.848 6.65-6.114 12.032-12.857 16.153-20.23 4.116-7.369 7.04-15.503 8.769-24.399 4.2-21.596 1.03-38.418-9.497-50.469zm81.772-66.514l-9.414 48.438h35.078c22.07 0 37.29 3.852 45.67 11.547 8.38 7.7 10.89 20.177 7.54 37.423l-16.47 84.78h-40.001l15.661-80.61c1.78-9.17 1.13-15.425-1.97-18.76-3.091-3.335-9.678-5.005-19.751-5.005h-31.47l-20.283 104.375h-39.375l35.41-182.188h39.375zm162.734 84.688h-21.01l-11.9 61.25h15.04c14.23 0 24.72-2.518 31.17-7.485 6.31-4.853 10.7-13.494 13.08-25.683 2.11-10.885 1.49-18.565-1.8-22.207-1.98-2.194-7.8-5.875-24.58-5.875zm-17.87 68.75h-24.14l14.82-76.25h27.19c15.08 0 25.13 2.784 30.15 8.35s6.22 15.121 3.59 28.661c-2.75 14.103-8.03 24.166-15.86 30.196-7.83 6.029-19.75 9.043-35.75 9.043zm83.13-86.924c-10.52-12.051-27.27-18.076-50.23-18.076h-76.32l-35.41 182.187h39.69l9.41-48.437h34c15 0 27.33-1.571 37.02-4.728 9.69-3.147 18.49-8.432 26.42-15.848 6.65-6.114 12.03-12.857 16.15-20.23 4.12-7.369 7.04-15.503 8.77-24.399 4.2-21.596 1.03-38.418-9.5-50.469z" fill="url(#paint1_radial)"/>
    <path fill-rule="evenodd" clip-rule="evenodd" d="M1291.7 263.798c0 92.95-148.69 168.301-332.1 168.301-183.411 0-332.1-75.351-332.1-168.301 0-92.949 148.689-168.301 332.1-168.301 183.41 0 332.1 75.352 332.1 168.301zm-472.059-44.133h-21.01l-11.904 61.25h15.042c14.234 0 24.724-2.518 31.177-7.485 6.302-4.853 10.7-13.494 13.072-25.682 2.111-10.886 1.491-18.566-1.794-22.208-1.98-2.194-7.807-5.875-24.583-5.875zm-61.29-43.75h76.318c25.115 0 43.918 6.945 55.883 20.642 6.302 7.214 10.343 15.868 12.109 25.885l17.278-88.896a7.5 7.5 0 0 1 7.362-6.069h39.375a7.503 7.503 0 0 1 7.363 8.932l-7.679 39.506h25.98c24.24 0 40.84 4.424 50.75 13.525 6.79 6.238 10.55 14.775 11.26 25.497l6.41-32.954a7.494 7.494 0 0 1 7.36-6.068h76.32c25.11 0 43.92 6.945 55.88 20.641 12.08 13.83 15.86 32.952 11.21 56.834-1.87 9.635-5.09 18.593-9.58 26.627-4.49 8.032-10.41 15.455-17.6 22.069-8.69 8.131-18.52 14.014-29.2 17.482-10.38 3.382-23.62 5.097-39.34 5.097h-27.82l-8.23 42.368a7.494 7.494 0 0 1-7.36 6.069h-39.69c-2.24 0-4.36-1-5.79-2.728a7.506 7.506 0 0 1-1.57-6.202l7.93-40.793a7.498 7.498 0 0 1-4.2 1.286h-40.001a7.5 7.5 0 0 1-7.363-8.93l15.664-80.611c1.541-7.926.607-11.463-.103-12.227-.098-.107-2.555-2.607-14.258-2.607h-25.287l-19.103 98.306a7.502 7.502 0 0 1-7.363 6.069h-39.375a7.497 7.497 0 0 1-7.362-8.93l6.581-33.864c-4.344 7.322-9.898 14.115-16.532 20.218-8.694 8.13-18.516 14.011-29.192 17.479-10.382 3.382-23.622 5.097-39.349 5.097h-27.811l-8.235 42.368a7.5 7.5 0 0 1-7.363 6.069h-39.687c-2.24 0-4.363-1-5.788-2.728a7.504 7.504 0 0 1-1.574-6.202l35.41-182.189a7.5 7.5 0 0 1 7.362-6.068zm43.418 112.5h-24.141l14.82-76.25h27.193c15.077 0 25.126 2.784 30.151 8.35 5.019 5.566 6.215 15.121 3.589 28.661-2.745 14.103-8.028 24.166-15.86 30.196-7.832 6.029-19.75 9.043-35.752 9.043zm83.135-86.924c-10.527-12.051-27.276-18.076-50.235-18.076h-76.318l-35.41 182.187h39.687l9.414-48.437h33.995c15 0 27.339-1.571 37.026-4.728 9.688-3.147 18.491-8.432 26.416-15.848 6.65-6.114 12.032-12.857 16.153-20.231 4.116-7.368 7.04-15.502 8.769-24.398 4.2-21.597 1.03-38.418-9.497-50.469zm81.772-66.514l-9.414 48.438h35.078c22.07 0 37.29 3.852 45.67 11.547 8.38 7.7 10.89 20.176 7.54 37.423l-16.47 84.78h-40.001l15.661-80.61c1.78-9.17 1.13-15.425-1.97-18.76-3.091-3.335-9.678-5.005-19.751-5.005h-31.47l-20.283 104.375h-39.375l35.41-182.188h39.375zm162.734 84.688h-21.01l-11.9 61.25h15.04c14.23 0 24.72-2.518 31.17-7.485 6.31-4.853 10.7-13.494 13.08-25.683 2.11-10.885 1.49-18.565-1.8-22.207-1.98-2.194-7.8-5.875-24.58-5.875zm-17.87 68.75h-24.14l14.82-76.25h27.19c15.08 0 25.13 2.784 30.15 8.35s6.22 15.121 3.59 28.661c-2.75 14.103-8.03 24.166-15.86 30.196-7.83 6.029-19.75 9.043-35.75 9.043zm83.13-86.924c-10.52-12.051-27.27-18.076-50.23-18.076h-76.32l-35.41 182.187h39.69l9.41-48.437h34c15 0 27.33-1.571 37.02-4.728 9.69-3.147 18.49-8.432 26.42-15.848 6.65-6.114 12.03-12.857 16.15-20.231 4.12-7.368 7.04-15.502 8.77-24.398 4.2-21.597 1.03-38.418-9.5-50.469z" fill="#1B3154" fill-opacity=".13"/>
  </g>
  <defs>
    <linearGradient id="paint0_linear" x1="1920" y1="553" x2="-31.571" y2="154.686" gradientUnits="userSpaceOnUse">
      <stop stop-color="#05734D"/>
      <stop offset="1" stop-color="#045899"/>
    </linearGradient>
    <radialGradient id="paint1_radial" cx="0" cy="0" r="1" gradientUnits="userSpaceOnUse" gradientTransform="translate(821.5 145.915) scale(453.822)">
      <stop stop-color="#6EB5BD" stop-opacity=".06"/>
      <stop offset="1" stop-color="#1B3154" stop-opacity=".1"/>
    </radialGradient>
  </defs>
</svg>
